<mxfile host="Electron" agent="Mozilla/5.0 (X11; Linux x86_64) AppleWebKit/537.36 (KHTML, like Gecko) draw.io/24.7.8 Chrome/128.0.6613.36 Electron/32.0.1 Safari/537.36" version="24.7.8">
  <diagram name="Page-1" id="8ItENPIo80TzvrFUHSQn">
    <mxGraphModel dx="2040" dy="832" grid="1" gridSize="10" guides="1" tooltips="1" connect="1" arrows="1" fold="1" page="1" pageScale="1" pageWidth="850" pageHeight="1100" math="0" shadow="0">
      <root>
        <mxCell id="0" />
        <mxCell id="1" parent="0" />
        <mxCell id="aCxlsfGfSEMQHci3j_Ye-26" style="edgeStyle=orthogonalEdgeStyle;rounded=0;orthogonalLoop=1;jettySize=auto;html=1;entryX=1;entryY=0.5;entryDx=0;entryDy=0;entryPerimeter=0;exitX=0;exitY=0.5;exitDx=0;exitDy=0;" edge="1" parent="1" source="aCxlsfGfSEMQHci3j_Ye-34" target="aCxlsfGfSEMQHci3j_Ye-27">
          <mxGeometry relative="1" as="geometry">
            <mxPoint x="-50" y="375" as="targetPoint" />
            <mxPoint x="-10" y="375" as="sourcePoint" />
          </mxGeometry>
        </mxCell>
        <mxCell id="aCxlsfGfSEMQHci3j_Ye-6" value="Air Quality Servcice" style="swimlane;whiteSpace=wrap;html=1;" vertex="1" parent="1">
          <mxGeometry x="345" y="203.5" width="160" height="140" as="geometry" />
        </mxCell>
        <mxCell id="aCxlsfGfSEMQHci3j_Ye-9" value="" style="shape=image;verticalLabelPosition=bottom;labelBackgroundColor=default;verticalAlign=top;aspect=fixed;imageAspect=0;image=data:image/png,iVBORw0KGgoAAAANSUhEUgAAASwAAACGCAMAAABQU0d7AAAAmVBMVEX////sbUlEREZISErtcU5LS0361cvtc1H8/PxSUlTb29vS0tNOTk/w8PChoaLz8/N8fH6Hh4j63NOrq6z3wbKQkJFra2yXl5hiYmSxsbLIyMm8vLxubm/6183q6uvMzM2dnZ9ZWVvX19h/f4H+9vT2tqT97urueVhsbG3vgWLym4P0qpX86eTwim31sZ3vhmjxknf4yr3zo4x938hPAAAM20lEQVR4nO1caXuyOhC1UlpA2bTsFAVsra1d9P//uAuZrIg7Xt8HOF+qxCxzMpmcSbSDQY8ePXr06NHjciwW7wUWC+XeA/m3obxPXn4+/75/V6vV79/n9m2zXtx7TP8mFpOXz9Xzg4DH5ffX5r13MRHK+uVv+VCLx9X2qfcvBmXytapnCvP19/J+7zH+K1hv9zgVR9f3S+9dBd7fjlIF3vXU+dilPP2dQlWJ5VfH1+LiNLfC+H6993jvifXn4xlcFc710t2lOPk+i6oCzz9djfOT33O5KuL8VzfZej2orfayte0iW5f4VVd9a312vKJsvXUtyi8+L+WqiPKbe4/+/4XyczlXDw+ryb3H/79ic44W3cVfl7T8+8UBC+Pt3hb8f7huEZZYdmchTq5bhCU+u6IfrtkJCTqzIz49HyfjKP664VpKA45VSNOne9vxv6CBiFXisxM6/qsRrrqxIb5fmEDvoAta6+m8w9H96EKIb2gVdmIdLq7NdBjavw4b2gtLtH8/fGmMq4ff1p89NBayOhC0mpHvgMe254eLplRWibZH+PVF91978HVva26MdXOb4cPD9t7W3BiTJo5nCNquHV6bJOuvJ+sMslqeHfaedQYajVmtJ6vJ3bDtZL03qbN6ss5AqzPpxXry1dQ5aYnHz80TwqR9P1mZfC6bpAr4QnhevbVMRVz9bZCDpLXsBOK1cbfi0bI8sSfrDDS6Ee7g5d7mNYzN7dh6/mydilhv3jhsT+Xu++flGF5bthnuYn3aeXz7nOYinHQE8dzpn4IxnHQgv1rfe5j/Bk46kG/97eBpOPFLyx38rU4Fi/XrZnvaQeDjdjOh/wzjffKKsca5s7ImTyYt3Qkmf8vn0wX943L5B7nf0/fzI86dl1vEzeJtRR+tWvlD18XJvyKnQHFe3BHQHesLz/myjd/KveRwuXStjfCkPPurfHfi596W3QCXXFucRFYbL/QvyKmRgqgswzJCCcvwuY3LcLD5Pe+85nEFP1/d/D4TLCENWvws6aN2BvjCt16fdrF52w38y+1LWUSEApMOE6wmmHSgaqIjeK/m1stNtwg4C9Vvybf9izJXoSoq2qgFGkPVs7a9Z+3FYluNWf2ZA4HyPhGw2f2vR6u310kd2ncHfQRFEsxEUola8fX4XIdV1/7f0XW//23b5dcRXPcfC1p2rXoMV5LVrai1uepCv+2/r6hg8bN6vBT4oLRDKJLgmnz6FHQtae7Ro0ePfxCKnmhaYvbx+Cj0yIv9tIBvGSPztl0FCDp+OwsoEvwoQ+/CBvvUUIujRtrSp740pBjH0S3p0tSyE3kG75SYdRzgTzjoXd6gjxuoRaeJpmYxRxWyxE6O17oUiV92IUXwTvdZtx48Uiz+3SUwkxI6e9AcWVE63EGsNdBwPUzwpSm807jObaXmA5cgKANKyrHdGFmzGq4Ktm7mW0rOO85MRjQh/4ph9euC612CKXDPHjRFVkKChuRbdh6nZEU6N9sWPd6UAHUdojDlwwSBs42vCMc3I2uKqYqjpKBH0aY4iIxnVzd9sEcLJmNevlY1A/6gR9m4fJNeEQhuRVbiAlcODYdafGPXipDzurDmbORSegQOhh6FEjy7vIdbkRXJMM/c0DIIYv6totYIPAc1D8ohViB0gXYIIGheMVe3IsupWXPQtFxZh0oyCqNQq5FgUJLpe8wrUoOEL4OYBGsOgrmNxZfHdc+ZOjC1WRjOarvWZlFQ9i08PURWdTTMiKwwYpTsM6LAANZcLIwDRg7zPLVLFIZljj+WhrLqzivBRA+sFJX4dsiaofU0wypSAz+n+hwTBHMBXc3xM9ChMH9zOszMc1VZkuQ0NipdJ0XXpUtKqutlqO4IdQuhJUWvnYQnKwnycjTWtNKSGdm+Kg+lcZpHjPgItTArSp3csryBX+OgukuHCwKxCCYBExjplKNWiVymaOWcjIHWi4jolNyIfBMXTRBIA7L84PNozrC0IHI+cdThnq5DruuhapRFwbAKtFEQsma0htgSL8ulmC4p2Lenug1RdgAjMQSysIR2mNFRIHP9c7uBOR8LQ/NDkayQs3QcYLZsGMOAGCeH+BmKY6BJcbAfZB9C+5JNu1amYteSU5gfHSRrlFY+TlpShSoqGSiQZUDtw2TZ7KUvtjb0iJN4lURpmI54snKfLxtjnTmHNujLMnyBdsgGZJWOwUc1t2q8TWwMK2MaStMjZPnCaCRqdDCu1FEjniwVF59KFtiaqoQaGbeG99IiaKSkQ5D+Qr0xqYY3WFgrZXKj2OQx0w4Q/2GzNEkzcpqSrnAahGOF5OeO/QFlvnZ4GUJLdDQqlr3E3wojiIFY5HlCS6eTJcXTkaaFJIB8oNWARZqcR5qWBXjdGwJZshWNRrQaGApCqlSlWDmYJHiV5aBJQYYF0KRvzDRt5qW8IUCLPC+3LzMgW5I2LQGdu+g1OgsiZElxMMvCOfYwUJJ4QiQryjQtsqBHSFMpWWqc5/n8VLJkD2KFEkJHEJ7BlvEUFqUO2xhyH1KPlIVgKMh2jdKR+KQjph0YlSSlJln9zOcGG8XqkClnUW7skQ5DCVuRuWykg9kYimB5mwaaNRQQCFmyk5lIOpxIFpPzOO9GiwifpZAynW1zpB4tg+HC4kroQiPKYcBpB3AZh9mR0iwRVr0LFpsjI04zXALuSITsPrIsGu9QQ6BeHLEIb8YGI0uaEyNODPCcmofwXGYjCacuEZiduB5L8IAWyI5Nl9SbIS8KaIUPkxhmMBttOlEQp8aEoUKskiIYyod5kCwmvXHAi+hgJHYuC0Qiz/Yqxp9GFq/DIFtBpoLHegaBzYKRVbWTU6JQWL6mygFPcOltDnNP0BgWbd+oHN6g1AEBNn/sc/vIcpncBPcpQyTsJ7JD+3BkypBXaec0sgKuFG/to7p9mjodrsfahQnEKRTlgyoHph0Yk8KRMw+yH0Z5kTpgCGzsIYs7qHbo8EZybR9oUEDW/DyyJP7ywPwg1uzu0wipXkOyQJaBbWbKgWkHCOporOYesmD0o+ph+FGyuPXByJrVk4XWulchJ62Qx5HFKXiBrPhksrjTToEscEkPNwWJKdEO4Lg+0/J7yMr83YJbk1WbG/p0TDtG82YDWZJagXuULHyWzCkHEjs8/BcRiMkaV9ofl6OncvWMZXiArB0jUrYMGVmW0AsAQji3SQnLNKGnvvgUrxCrIpRjZMHWaCnw1+BmKMedo/BCOq+2Xw4W9qyha4QIwSkBvpYsEH1pWGPEDlnwXuZdR4FnaJvH47W4Ux6gqNy3Mu4UD1elLw6SBR7lmkw5kBquCZrU40zibmkU2gGY/0H61i4mK6H71Y4RO2SF4EUuZzHOUNG5LiZLZQeB2P/LdYKvYVgU1yxy0XyYLFhfaRJwz4h2gLUNGx685kTe1B4JJxfUDuzkF5BVVdYD3TZIh1WydBxELXoShRMamFCixOk9ojKVWCl0SRW2mZf3HuZxskAlqxqnHLBB48zgKuJLRXqYUmQPqgNCVCQLW3EJWfjD5KABrSsfz3mVLJKrFslqpptmMiM5L2QSNCF20SmoonngiZCxQzoy9IGgxCmbki2WG+4jC0Yhz2zqwQOqHZAZeFVgVSrZiCA8jWnA7PCB6MQe1pAVJ4ppwhddDpGFZ0Sdoso6yg0lcI4dsnR6mKL6ruvTjXQ+EMgajmNvatjk9AykOc6jhjIqwx6JDpyOkIWskTy4WsULACK7AysUe9uIzFxuTD0LpmaMdEyE97/paBQaREWIZEn+h+u6wTGycP5WfLxQ8Q7+0kes15JVK1jodQ9/LsUBz+hA260LRUfIAlPxaQj+BMwwPpMhu7OxIzxxWpuQnmW5/IiELocJWSFXi0sy95CV7Mq5FMa5SxY5+RBGZOEYh8nKxfboAidHLzvdHCFrxJ1N0rjDDYPeg5lOlS1yUiocdA9jNBBCls6drx4na/c4VjwpFdMbLa+oWHVOZhaTFQkulHJCYyR25M74envJ4r8OEoldASOsniGcHsv0+F8xOMLVMOHJGkSs0glkFbu4MCUpuVqpI2tgRhZrXUrp/szIKtojY1Nt4RopMdh3u1KPbLpKLo8LcGTF5QMiQfQPVDzmHhUG0GcyNz5lxsYmxxETQUoUk5NmNyyW5Vgdx1Rbh5aKm0IiZFo2LXOCzZNpGRpP4FJ/4eyby5XB4J6zwLFi141zL9I4BUrJGpizefGBODey6jVkEnllSewEXE1tVIIlBgo8MIV3JTJ6yZLQZyPhMlzJpjYa2jwU71L1cJ7HseVESdkikd0AU+ObSqqt7jwo2iqM+IjtKWffzqe4QZm6Wf1KKSMLf6D+wnZ/SUPY14GiNNfv1UYIZPU4jJ6sM9CTdQZ6ss5AT9YZ6Mk6Az1Z58BBv1HpySrxHxIPIxk/lwZsAAAAAElFTkSuQmCC;" vertex="1" parent="aCxlsfGfSEMQHci3j_Ye-6">
          <mxGeometry x="16.189999999999998" y="50" width="127.61" height="57" as="geometry" />
        </mxCell>
        <mxCell id="aCxlsfGfSEMQHci3j_Ye-20" style="edgeStyle=orthogonalEdgeStyle;rounded=0;orthogonalLoop=1;jettySize=auto;html=1;exitX=0.5;exitY=0;exitDx=0;exitDy=0;entryX=1;entryY=0.5;entryDx=0;entryDy=0;" edge="1" parent="1" source="aCxlsfGfSEMQHci3j_Ye-10" target="aCxlsfGfSEMQHci3j_Ye-34">
          <mxGeometry relative="1" as="geometry">
            <mxPoint x="210" y="397.5" as="targetPoint" />
          </mxGeometry>
        </mxCell>
        <mxCell id="aCxlsfGfSEMQHci3j_Ye-10" value="Subscriptions and Payments" style="swimlane;whiteSpace=wrap;html=1;" vertex="1" parent="1">
          <mxGeometry x="140" y="510" width="180" height="140" as="geometry" />
        </mxCell>
        <mxCell id="aCxlsfGfSEMQHci3j_Ye-11" value="" style="shape=image;verticalLabelPosition=bottom;labelBackgroundColor=default;verticalAlign=top;aspect=fixed;imageAspect=0;image=data:image/png,iVBORw0KGgoAAAANSUhEUgAAAVYAAACTCAMAAADiI8ECAAAA1VBMVEX///9EbLPSTVc8Z7E1Y69BarI3ZK/R2uuQpc/a4e8wYK6Mo85yj8TP2Oq9yuI7ZrC1wt99l8eEnMqjtNdjg77m6/Xw8/nRRlH3+fzG0ebQP0tsisLf5fHPPEitvdtLcraardNUeLn88vPUVF3hjpRkhL/WTFLacnlafbvuw8YnW6zXZW3qsbX56Ok3brfegYfz1dfnpqrYZm7jmJ3xzdDprrK4VW3DTV//7uzWbHVMaKyGYZDce4KmWnrOT1lmaKSfXIF8ZJeVXoesVXP129wZVKltZZ3kzmhtAAANoUlEQVR4nO1da2PSyhYF8qAESoCWEAolUKVitVY9Po7neq/noef//6SbZN6z55UWrOisT9oMYbIy2XvtR4ZWy8PDw8PDw8PDw8PDw8PDw8PDw8PDw8PDw8PDw8PDw8PDw+MYsT7RoD+Uh2bTx5jgUWKYBGqkYSaP7Q8eY4ZHiSJqqxGu5KHLODl9jCkeIc5CDavRBoxdBNHuEaZ4hMhC3WJN5vLYeXkHwtFjzPLoMA40rAbQjG7qOwAMrgdAV2cC2uFSHovMRXzyGPM8Mux0JgCylwWRhm8PCSO6WCMRQQSe9UmqtQ4eAnK2OjcDAQsQCfToHYC+zEPAOiZUvfr4u2Xspz8MysuDw5QuwFf/ufxsHvv88r+vqDcDcYIHhwETV//rXL4zjn3Suf5C3FsUeJGlx2lCF+uf153OC9PYNxedzge6XNP+95rjEWJDxdWXktXOxUv90NtZOeD6L2YGet9vmofAalzjEFJxxSzrh4rWzuxKO/auorXzkdqMYHGACX1H9MMqRZd093/mPKKL9d+a1c7sqW7s64t6wPXfdLkmQIAdFfq1VwkFWlfbXf/h6eR+ysRVB+Hyq2bsCzygw0RWkT94Bo8IBa3nYRSlDzZuS2YC/r7GpM2eqce+vMADrv+h2iE+e+AEHhWQ1lHtvx+c91wQgqJX7wlrncvnqqFX5HDJO014HbfIgrRisQkLIo0wp+Kq1Pb0Ge88UY39bUYOX3ydxsQiB5MHTeBxAWld4DzSw6wrrbRUy/71JeXtDRx6Sxfz7Lcy3mWpgQP40e8F/WoVaR2WaED0GU0G1MWpO7oeZ7dg7Gd6sFMqsJzdkPN7XtMPAEgrkptRIQxb3oThjbvmydijXGf5bilzl6/lse/YUq7jhSFdruHxiixIa95Oo3YkcbgqV1/sfpUT6tDxon+DH/TZHRj7hK5VHN2e0+V6vCJLIbCycRzupLryNmpCa4/6q3iN/4TJuwCBFpMJFzgXwxKv9NNHB1U4AJFVV+pO6zmrtJD19vxC7bGumNWlmUO61qP0WJtc3GgdNqKVWUcuBP00U+qrp0xcUWdGilqlZR47fuWPBjdaa5HuTCtdqrwv/3qhiga+CuKKgHVsHGuTixOteb18XGlllZaEj4CfzmafwNhPgrii3yeo3v0jz6aZqzcsx06dxgrjnGjt1i7IkdZpqH6Er2Yw0/KciSthIc+ZyDLVX3qrUQ1V/mKIDq1kSpZniyip0F6sFJY740+YjQZFPTbcTIaGqDMbjdG4YLtGH4W0Zmiu7OnL1ijFF/RHFIbaKK20RFL8+x7mBam4mr0VDyxYucawVPIiiUuEKbzk4U11JL5ZS3/eJDFJWEZxsgU2pld9Lqnj5uUgiVmGIkzGGv85HdNxUZQmm4qbdSrTelpPKCEReW+SEG0fxASJ3pWwSgvIQQFx9YaJKylK4ESWqcllib4MJr2x1wvEQG26S8RukCgZSHet/uLaJ/QTqc0pSJRJtTNpXJQsMhxl8rSi9p4AVZPynXxy9A36NMiGiXkDHzW4ZACIEmi2NjI2uawQr6AfDj0yUSws42ECW2zStrgGEa1Bnm0UXU6J4rIHcFwQLEdmWrMEfMhM66hBEwWXKQALOYvE8FeHBeZPJAclN6USw+iG3vEK5N+iNkaPSdjd0NVUhpyMV7BeF9Q/8+eM1sC2irSqO9O0tOZUckbWatRrZgIUea2V2/3J0PeJTzv2mqlgquY3+Hxx0t7tNgF5DMUQGdGKqYzCJC6Kop1QL5xI3nESk5tTnXRXjkS3GaertLR+qx0cmQ/Bjc62ntBKS2KtOlqysMyaGJtccGI35NfReQD5IgIlbmMB0OtjmyCwj416dSRKtqNlfYpsvsBjpUdniB/mIDhDJ83mY87SaGltTUtkaEnHqymFRm1Mqc2wV/pfWmoGp3wi3IA+WjCcCcbRhLiyENXthPOASyyP+ceB+cpgw6vOYapIQ5MWs3jB8bHc0KWlpxXNs565g25llRZryeSKrlVdhYspNdhdyAMta7amsTwI1/wgvK5E45jhZ52LOSitwVbUCFhKC7cY379Usv6UhT3ROndcYBX4Sot6BIsrUmP9hdBI1uFOpa3QwpRP1MVks8sntMKkJLrLvBXIC/VQ2ie5J1oLN3NYgRNX2u4BFgWb68DYu2FyUNVG0lbYokQarhjbhFboJ09D+cpwSikEQ4kc2g+tnPO2ZkieGcQVAeuOtTS5LDgX1VNpK/wGA3yGSJRM/0BcFlwXOfJjAbsz6KSqtEWxR1rlSosJ75i4MnRmMRFsrr9glVU/4oVCW7VayJ6EIBDOkSdisgXTmioCKmRcmELGNiBWvJpzYhFYCG60Tpi4smafQaVFDfrmgaX+go16+eQiXSAPRzZAJaXRN7AorScYFAHIYDB7RO6Awp8S/7YHWpew0qIF15Bh7Hrt6hMMIrDKahOHL9lifAGKc6AHOaUzxuGASsiMJVqRaVWmLrP90coqLcAxyFBVWtTgmlzMT8CGiP36ctbK06jSn2vJZ/WAY5JPQmlFWSplwIntwx5oHTJxZX0PUFVpUWPKUgPm+suSS14EoMEAS9vd9lzCFh1hzgDTqnKRMq1jHCSppoPW2B5oZbFm2zSsgrrSogYrjVsMNivURNDa4ZsTKdAWaUS0Ku+hTCtq/4HyqsLAnGrBU262Wm1CTF1pUcI1kdXiYhvYGptTZ6oBoFX1ZMu07sCKBGP3altNCf0WqW3DSosKrLYd29QFjkRVlGjycA+kFT2fsndEgEWXgysBbaUFgvVxAC8EQGmFD/Ax08rpVmO3Iau0wH4sGU36hs6pEQAuk9Aa6pBsydAfj1a3KIt1uSn6sSQ06XLjXBa4qzmWkQ6F6T3Z1j3S6pYTMFVaJLCcgL0ns8sJLKjQUc3CHvw1otWkBCZ7pNUlg2WutIhwzWC1WMMGXpZytRarc4cWmQa04v8rVfreBFYFh3yrpdLCo0m/+xjZ9QKbDflpQQtLrdxFNKAVRVmpsuAODcSeqgNqO2artPBg1QFrqWEopVrk+BnHmQ4bFTSgdYiyOqqADCUR90YrV8tS3kR7pYXB0McBvhbl/eJqzkWkYHCOU9t2n9WAVhznqjIgy/2lWmpYKq/2SguDa1KwRXQY6vcgaWzhgSdSwL5rUQNasUdV+azVnmllfQKqhL5LpUWamWbeAtZCpRUXXUSVhbtcrI02TWhVVLcIsN52otVphypjV8vnBuKKhsLWt4q7UqfATqrEVpirqrEqNKGV1LKATCHbKVloRVyxXK8Jhh4s+Z0WE9gbs7aNhnK5Ko0traiy8LSsbyg3oRVbASiTif2y0DrX58EBuK4J2dMYxNWVlHdlb8xa+ziQtuJTMSuqC7hLwNNKFCJruGFKowmtxPrEUhZiTPS2hVbs4F3kNK+LxJoyL65ApeWNJAxYf6u59YJ1sfEWCn9a8NEDvPzDhRBtZvNJEN7ck1YSBoZCV8s5i2LMtLbIY+3yHqyua8JUabmdiUy793HgmEH0G3hfQ8Eq56TxL0o26/lyOp325qv+JgxLJ5vck1bWgxX2u9U58uUIdWs5uSycOSgHD+sFMB2ankztuwP6SsvdTLQLjm1tLWbGRA2GL1e4J+x2R2mIWtdjrFvuTSvrGAzCar+LELdYR061LJb3DMOiaMdJGJkulbDajrbsj6ZKS5UouHjP/u/+pgvRVrLqwAZXEM/TSLeL5P1pbQ3oGmqz/tagWNbr1UYrvSttssBN16p8L+uZodLydiZoLu69LEu4ibVVDB4e4qSFxZ4v1E3Q0X1ta/1X2OIdly5w40RrXkh32ni12rcI1ZUW5MtYhEDz4bZKC9FWCpV/qiR8FIDdZMvHNzhhJqQxra1RHAvnDJJJjh23ldZWthMnZLzcHhRZhjYWkigg8az7O6+Lmzq1f6NKG/brY+E3SaiOdknlpCJUhg1KezYWDEiv/piyLXqADoEvy9ZBkuJTltZ1UA84qQbfcCas+63+NLhfZ2k5HzSdNLEUrVllD79EZKq0kEQByb5sXWuN+fy0hjoZi46dguT9dNTfFtXrOkGxnazkz+boU6oQpIcOqeZ0ul5Upwx2kxG2J9N6LKecMu2J55NdFMdpMVjbBCzYT8DwTsstjb1QrpCrtPj9nCVwu19Uy+XO1Mbylh6sRNbPsfvFoSDu1WKstIg7ubC9WmzvN/+KmPMtWS+E9QjAVQ1/5yotx/rS+0HBovrCVmnhwto75xbBXxTKXdvgm+81mE74+JPs2nY4NNljkKja63/JZ454+5vDgtsR8y/bjpg4Brv+52fZEfOAaLJ/K84Y0A0xj33/1kNC3m34vX5oHS9w27ce+27Dh4S0N7axjaWKYNlmw35vbBPYTu5/2HZyv+K3xra85Pqrg//dgQvLOy0vLz/43x1wBP8rGZZ3WlpvvzhXWn51sA5VmDqdLsRfeWG5b2sbyy8P1uQC1P04Vr3K0/a/QOQCXBmF/fza3yeDPeoeAF1dQ4z+98nW33+Wx4c6JQVfeB7pFqut0uJRo+owganTXEuqr7S44SyUm7FKnMQaVv3vvLqiAK2D3NsWYLH6SosjhgH40yLU/Kx26CstzgDZqOlE+xvwPhng4eHh4eHh4eHh4eHh4eHh4eHh4eHh4eHh4eHh4eHh4eHh8YPi/6qD51P9a7lrAAAAAElFTkSuQmCC;" vertex="1" parent="aCxlsfGfSEMQHci3j_Ye-10">
          <mxGeometry x="10" y="53" width="155.88" height="67" as="geometry" />
        </mxCell>
        <mxCell id="aCxlsfGfSEMQHci3j_Ye-12" value="Email Notification Services" style="swimlane;whiteSpace=wrap;html=1;" vertex="1" parent="1">
          <mxGeometry x="360" y="510" width="170" height="140" as="geometry" />
        </mxCell>
        <mxCell id="aCxlsfGfSEMQHci3j_Ye-13" value="" style="shape=image;verticalLabelPosition=bottom;labelBackgroundColor=default;verticalAlign=top;aspect=fixed;imageAspect=0;image=data:image/png,iVBORw0KGgoAAAANSUhEUgAAATcAAACiCAMAAAATIHpEAAABEVBMVEX///8aL0Qi0XT///3//v8cLkT8/////v0ZL0Yj0HXD7NP///se1HEaLkYADzEA0Gmdparg5Ofe9+oKym0AGzwAEi8aMEEaL0L1+/3T2duFjZMBIztncHoJJ0IABCUizXj3//hP2I7GycwAGzaut7vu9vTr8PQADSiotML/+v+5wMUAFy8ADjMkNUYSKT8ACikAACsAAAAAGy6MlZ0AHDWssLQaKDk4RlFGU18cK0lebHWXmZ1NWGt1f4dUX2gACyEqO0uv6sa57dXX+Otb05U0w3ea6r2D4q5z3qOP27A3RlEAAB7c9um989oS2XEJIjFWzow8SV820IA4xYBtcHRmdoXByNO7w9PV3OattcpYYmnl/JReAAAPwUlEQVR4nO2cDVvayhLHNyTZjYYAKUISQ9AGDBBK6EHwrRerte1pe3qs7blFbr//B7kzuwlyrKJt0erz7P/pC65LDL/MzM5MNhIiJSUlJSUlJSUlJSUlJSUlJSUlJSUlJSUlJSUlJSUlJSUlJSUlJSUlJSUlJSUlJSUlJSUlJSX1GEWpyX73OTxGMdVUVUnuR8XM330Gj1FgZ1GtP1h3f/eJPCIxEKHblcDQ/cGIEBXGtN99Uo9AKlBq7gwsQwF1d0Okpv7uk3oEYsTbK+zvc2yGlbQObEJksLtJDAJbK7FABudmKUlrW4a5BWIM8w76YpAoSrXqGNzgdF0xjOFOE/MSQonMS76XaYI3xr2Grnyvyq5HIJ2TCd0VgvLA+09BqTopKwOdVbx0lKRfi4Dc7z7HB6lo3ArEKorUlKTRSGa2B1/WX7gyH7lCpZZvOY5u6Q7H1K/FzcOXiaBm4DeGSfN3n+PDU9hrpKZWrSqKVdnz+OhRV4EVQiyuilHAUVV665xe+pmHWoYxqMawvOIwLQ18iHJVvrZalr8ruf1b4KUZt2AACZvGEA/Ai8b9RHEEN3/QlNy4qIj0lBH7oJ9gzpYUajZRNRB+A63OPizsQ4hTgmfjiIjh5S8QLD2qMPOHfmmopq0ev9rsdCiQC3cLidMVgW1eKmZ1VsKDGwXQW69encAb6ZLYwZWgkAVRCn/wa2YycXHwnB6maGfzdTlffvOWMg3OnIyOjkZXTIOrX9rZjeGDwCfb/LNcLJbfbbJl2RwcJh6XqArZYTgG2YxpEb5oPliz0zZfn5Zz+Xzx6arqmqJ4v6I7zlT+LRO8Vz3eKOZyuZWN90SjyzqN9brf+ECBW6nvB3954LN23fcr6w820dZOyjmuYv71R7ArE9FcMU84kKmRv78AtXw+lzvd2FwWNxa19i2lElPg1rD2K5xbRVF84PZQwa0WV/KCXK78/gnT6NXckBnEs5N3xWx2vvxkWeegRXVLcboxvCytOdWCB+6ZcXug2Oa55U7fHG92NPdqK6Ia23z7JneaWz43k9QKgf/JxSi6Vn183PKn5ad/087V7tfZPP5SPJ3NXS43d333wMYE5FFyQ3LFdydXL5OrZxjV7oSbiAwmo4+RWz5lkt94vwm1AgRkxu0O8jTmak/e8fVjZSW3ks/PuF1lmHizmkYRfEsDErAMu/CaZ2RIB/7F+4tiAqxCnFingy9NrfM9N6xNsHARlxLmaDy1o1tb+LPxizQJgBlmNq5dE6LvgtsKKDOlL8cm5BhUfFCGGdv78uybK+nMq7lhChPWPtULlUNIvhjxajv1endvRPEmWTrBLR1268/re9sRUdMiwZ6EYUgv+2lS82DYRaiAxGtCyYx03NHh2vPnz3a3oaoBcIykpGB8AOOfYfzulXHLZ2aXX8kVi2cnpKPxOEdZh776Mu/KK/jnGm7wAd1DrNb2raCwa9Pa8wB7n8Fa1RMuB+YzGjRgECY06uuUgzPJwfNC5Q/XvMRNSbrd7h8Rg0nui0+tygEQdslo2AgUxXECvz5206uLrj4aDhPDcZzEh+PeeT9/Zm8bp7kVAQ50Wn53Yqbrw+oZVAf5i8VjY2UBNxIlAfacqo5uBcnnAMpdp1p1HL0e8tyf0lrfqjpVx8LxxucI38VILXGU599zqzqG3o8AuFcdVKtJDbDTr33HAWr8H/8ooqq4XrT2zIAKmn9DGRxFd4xtxu0Mqqe88Na8WFrfQk6iQWDbAGb51InzeUjyNnLXcmP0Q6DrhvIpSbBrZxg6RCk/wZ5nw2ZoFbWhZQGxTwEiNfwjF0Mf51Z3L/upUgW1IvD2vxQ4VlCD6zKu6GDACRyUG3LP5c0ZlXxdUxw+HmDTK+m5d7xNI+WWf0roydmGiGBpGvzP8ebm241ybmaHwOrdE7K5kb9+XRh1Dcvwe+vrnxuiJeVXx9u7XWDpHyC2UgUIJK299e3DLjZfBmOC608t0K063mv8N7egUHj2R6RFvo7958I3OH7L0HWrAO//1oArZPnfhEeOnlmOlVT4cQPLsOCnsTt11Zm9Ea1jHvNAxm1rJXd6Wj775wIkrKPls7/hsy/k9iExrOEYx0scXHCAr5sVQPQyIprbBQtMjnjDJfo21HW95WGZK7h9ty6Mbc/zKBn7iq50D2KbuDuKbuz0xPsPhopu9UN8DeNwOY7466jW2N9XWuFdUvuXvcEiz+0rW1ghzOWRWeqiYH8Qn8hCbvZLxUh2CeYg4HvwyXtQrMPr9aHhDJsI01L0IxfyEvSug0RB57uWG+Qh6IVuBVyvxds0o4alGz3sAeI6WvMhiH7j45WqYkFQA+eEZWIcwMU5uC9umBxR8uTPcjGfz3wVVguId/mNXL5Y/vMJFKgdttBPw65lDEtIwiQhGJy/jTddmelV+GuyFxhW1xPpCiySAwhxFcoWcMMrFTd4bMNE5iCwlG4oXJOp7g7EOnBvRg4DRa/gOPa2TLA+xarc7RaDzE+fEtXFFd1lH8+KOZFqpPkwuGxOrK8811zIrWIZjSbT0JqQFTCkcD1MO+XWAgK7F9PHYJIFexE3U6XkRaNqFEQv1YelukfMNAsm676hYPeEKhDqjrKjajCuG5Xvuq9L1WVuDPLc1Tf5ubwD/hSfnmDZyjHdwM0w1q7iVuDcIuQ2vpjeHCrKWkhu4LYdVI1nPJd1W5YB2YjgBu7fbBhKF7LhLVh4YPziuA3FaNxtgLvMjSeSEOY2Ztzy5TevoBaiWQFxk72tNcllbur13PSbua1fcIMwkIwvuMUZt76uB1/njrumG9375aZhXqCxk3dpqpsvYr1KNYppFj/dm+3tWm6wnCrBIYZulbdCt29lb+uBY/RF7dSFVXMP+/kEC2FSGlpKA7kVYCE4zDIPyHZ8x6rcL7dM6urT8gqsB+XXl/ojP88NonwVsuGBC9+HpBSqp8+w8N2Km9IS3D44YGCRuOsAS+1eouvATd16BilPP1JF94SRvWo1I31Xuo4b7bDjjSJmbJR25t/wK/YGARtqhHVeToJxNLvW7fx0xg0WAnRIU1S18Zo1x80fk7Q3ElcsJdm9fG7L1bXcsL/78SPEtI72rxX9V7ipXh13vm6Lm6RhC/LWH+PmvVQsq7Kd/rCGNc/NqGyL8wmH2HUv3Q2vTNdxY4x3kjS8p7k0ezPJgQ8fcG2vadvhQQs+tfFD3DDVtXRryN9fw5Jrntu+GP9vVzeqzo57tz2467hdq1+Jb5oa+VjrJ41CoZEoWJn/EDfVjJwAW0Xw/kpSrTrz3CCHw/G1oOooRj1k6tLuUl6le+UGPDwo52ebOHXjB+2NEXsYGArywraIcombEOQq9dJd37FeNjcIP3PcGnPchqLrbR+tpdSSQS+x9MIlbk71GefWv+DWcJS6iG+wnkR73YQjsoLW3g78uIxbArWr4DYcxMuFdIWQ2wrnxm633WMxt4HS84EbrnfesNdLRoSqyM2H1y+Qm0bo6KjeaAyH9aM4Tno9H7mNjV5vwPtIQa835NwG8I5tUS/ArE8ZNzjH0VG/MWw06ode+Anen3JLvrbhuMNhozBcx6beUil9L8FtZeUpueXTf50nb67v9wrdyN8blUrNhfnV4kPYzbn3q8gNYttXMV6627o0E+e2ki++I/R2EYGaZ6fX999uJbE+q1kF8pNSZ/8LbjUiloL72cIk7K385eS2bWVN+xt7wL/CjeE2FNP8hUa2Nnerb44btsLu4R4garWYKxZX3m+y2/bjO25nC2+m/jw3FevLX3sOQlXVWVRJuQU1wm/JqvfyRJT2qljEEtRMN7NpfNfelTPxDGm6M+nkdfm0/HFZ+wZ/SrOTBE5Q1yO3e1Tn5M3ZKpg9sHLH9UGJwgp2tSXgrdH1v17ik1oq65jH/5w9uSeXuEEpt+ReufGemkax99LyDWXQi7PtGpfEVDJqDBWjgY8w8BYmZdqDeNqNc7N0/365wYfvUFM8poDJY+vS7t4ZxMmReLzBqHz2YBSqVnjj5cNpt4ta7Nez+dkP0pBbYBjWeNH0OxDuCahVnPShLD3piz3jjGR7kzH44V5zhXOD8ub59nX5ld0Wjo5bEy4WPcol/nfbExK1IxUtWIySbE42kb9gNy0cLNWSKPyMmNbdzx5hgzrFxzCXfWp+/u52K8lqSpjX2LvuSFHTvUgvtJQ8U7n4f8yNPeK2I8hCxOjsHLIZKNxajonKQ91Nnkoj0/8Ughk3KPCOQpJuWIH0hI52fGVWjBtJq3bt7gu76XLLwb9sxg2MQtAEQ4RvqJzb7GuhLH1geC+PqjyDffDcmEnj3pA/p4vcDMNpHdpZDPF2K47izLBd8XjDhcADJ/HEJdEkIiwKI87NtqOYEnsSe1FIiWejvalb4fn51A1tSj2PUjucTaCebU8ImZ7H4YNYdhYJnZFutwJ8og24cavqj12M3tHXfvospeNUDWOY4H3za+0garen03abmhDF1Eksotdk0oxNuz3xwnabEeGnJIxtzyPxBL5ou3SCE+Jp2GwT0j5vh2za9uw4fhB5zmLx3xdSTwxDcMO9QoOSbQPMdMDBHRj17cUlAtgbRMP2lEwBRtsWy8cEBycT8NBJ28y4TWJ0dlhH7PPYxqnnMZ9AyPm5S8z21HX5wR68oLgj3ueClXFzwLhaFZ87btovKxzgE8+LjCBqYqA6nxLanNptVxTuE3A72p7C8e0ZN9WN2+cRvgq9aRi1XfK/qamxCLjFU0gs2jGobT/wACeEm3Fjq2GlmHDTWtpaFYFtN8R4vzDzgvWUqFp7qhKvDfRErJ+EEP7BI1XwvowbQIxiSFrCaXMrak8nhJ5PIM563JEZc7mp3Wmje3miIuXo4i5Q7ph8EYWIhwvtcEf84prFnwWiWBSBXzIVw5aa2htutfTA8+xmUyXnHq6nxNtyARKDqAYXC3tpYgKgbHuQnUyakQu+fi+feykCZ6pdJGspN8g91l16i2LAbnqjJgQryCbQO4U4Nwhd7dhrUjSnLQB73oYlBPA2PcpgGNal8GKCStxJe7S4s/nAhImVt9edu3cCJXP/m3273e28IqCYhbkXQR0LANzu7aalgMqfj6QRTGTpEM4SEyjjD09Svn3/cQnvpO9kD40bltX9ILZa3LL9gY8+qHPmxu8x88JNfCX+mqIc4IVSukN/bgL+CphHsSbMi+973y7wp8YNw/dLt7/wWDCqUKAyLbbnBgkaXFpNquIvgNQucVMvJsCQqT7O37kR1fq40bQufwPcDwniXPi5/hICm/xNXD+irH/PH9T6zefyyISdHJM3yn73mUhJSUlJSUlJSUlJSUlJSd2obHuG7H/8mCS3n5Pk9nOS3KSkpKSkpKSkpKSkpKSkpKSkpKSkpKSkpKSkpKSkpKSkpKSkpJag/wMRUbTJYKvl0AAAAABJRU5ErkJggg==;" vertex="1" parent="aCxlsfGfSEMQHci3j_Ye-12">
          <mxGeometry x="9" y="40" width="153.58" height="80" as="geometry" />
        </mxCell>
        <mxCell id="aCxlsfGfSEMQHci3j_Ye-32" style="edgeStyle=orthogonalEdgeStyle;rounded=0;orthogonalLoop=1;jettySize=auto;html=1;exitX=0;exitY=0.5;exitDx=0;exitDy=0;entryX=1;entryY=0.5;entryDx=0;entryDy=0;" edge="1" parent="1" source="aCxlsfGfSEMQHci3j_Ye-14" target="aCxlsfGfSEMQHci3j_Ye-34">
          <mxGeometry relative="1" as="geometry">
            <mxPoint x="210" y="375" as="targetPoint" />
          </mxGeometry>
        </mxCell>
        <mxCell id="aCxlsfGfSEMQHci3j_Ye-14" value="Reporting" style="swimlane;whiteSpace=wrap;html=1;" vertex="1" parent="1">
          <mxGeometry x="540" y="310" width="170" height="130" as="geometry" />
        </mxCell>
        <mxCell id="aCxlsfGfSEMQHci3j_Ye-18" value="" style="shape=image;verticalLabelPosition=bottom;labelBackgroundColor=default;verticalAlign=top;aspect=fixed;imageAspect=0;image=data:image/png,iVBORw0KGgoAAAANSUhEUgAAAIcAAAC6CAMAAACz3a5LAAAAb1BMVEU0qFP///8YgDgup0/F4ssqpkxluHj5/PpSs2rt9+/k8eaZzqXY69ydz6gdo0U5qlfS6dcpmEgmk0UHoDwAey3l7ufy+fS93sRErV+k0645i04nhUFAjlTr8u2Ry58AnC81nVEclD8AeCFKkltDoFzDhVZ4AAACfklEQVR4nO3dbZOaMBSG4QhLRG1TttKgbfet7f//jYvoOih7NAdzcqjz3F/6JTN7TQjEMk40s32+2tqNiVf++mPGyez/aaxzRUSGMW8/WZDO4W1kRNtj/YsD2TmWpYutaB0ZC9I6fBl9MjpHVjMuTeuwArPRObL6z1O4oxFhdI6s/h06I8ZbiatycGR1Fggxlcx0HBzBa8RsZR2hECN0WY6OwEtjYj7MP3WELVYhRd+R1fV1SApHyBpJ4giApHFc32sSOdrFevkRn8pxba9J5rhy+6ZzXF4jCR0X75qUjkuXJqmj3WuoxZrWQc9IYge5+6Z2UDOS3EHcNekdnz9HFBxZ/Xd412g42g9GA4iKo52R80uj4xguViXHAKLlOF+sao6zvUbPcTojio6TB5qmo7/XqDp6EF1He2meJuE4LlZtx8ftq+447DX6jv0jfgKODjIFx26xyjm+M3r7J+bglWsDEEIIIYQQQmPKi/iN+e9BaeNXjpiOZjaP3azhT0j+MHgXf3sPcMABBxwqDv+8Inr2vEG3ORYvjuhleRy0pActYjnIr/6te441NchFc5B/IsixhgMOOOCAY2qOnOjEQQ6K5Zh/IZvzBt3H5yA44IADjtGOiqz3PKUHxXIs3Dci19tf6EH3t9/CAQcccMARxTGV92MTeV/oV1+JVp436E4+B8EBBxxw/I8OsynjN+bwBOr1302NcCCEEEIIIYQQQgghhJBSUufS8tqIndPLKrdi5xazcluxc5xZuUrsXGtOhfVi53xzco3cuecchhU8Bz68ovSC5+IH58rdlxXEficgsMLZ7msIYr+bEIZwttkDDo7ovyMR0sZuq4/vZLwDZPReWn19EHEAAAAASUVORK5CYII=;" vertex="1" parent="aCxlsfGfSEMQHci3j_Ye-14">
          <mxGeometry x="20" y="40" width="55.32" height="76.22" as="geometry" />
        </mxCell>
        <mxCell id="aCxlsfGfSEMQHci3j_Ye-19" value="" style="shape=image;verticalLabelPosition=bottom;labelBackgroundColor=default;verticalAlign=top;aspect=fixed;imageAspect=0;image=data:image/png,iVBORw0KGgoAAAANSUhEUgAAAOEAAADhCAMAAAAJbSJIAAABcVBMVEX/////ugAmhPwArEcAZtoAgy3qQzUAfPzU4v4YgPyHsv0ArzwAZN3/vwAAgLLpPjbxcykAgSdLmFz/tgAAqT0AqkAAXdgAgC4ApzYAgCUAqUW/5sz/787/9uLpNSMAV9f/1Hf/5Kz2/fr/wjIAjDMAmzz/0Gr/xkB9zZf/67//++/j9er/8tbQ7dr/243sQjDwPyEPbuNYeNn2ubW/2sWEvJNYpG3K4dAAfBc+qF+WrVKl3LfytgCppBc5iyfTrwxtlSFiw4GYnxs3uGSloxid2bLIrBH/4J9PkCTjtAmImx5Pv3b/yVCO1adhkyPK7Ne5qBUhix7N2p7/1oCG0J4/umpxyY7N5O3waxL85NuKZa7t9v3WSkz+8/Jpmea7V3jwhX60zfJLe+GgYZmXt+z0p6LrUkbPTl3tZlw8fup3b8HHUmmuXInxjoeMaKrsXFH4y8hPiuLvdW2Grerzop1BhOCzWoSqy/5ppvw+jfzE2v7N0iWCAAAHXElEQVR4nO2c/XsTRRSFd2eVttqqJQ1JLQ0lWCiEkIKlRouFEisi1KoFqsSvolaL36IW+OvNNtlNdne+7uzMzvA89/2Zne55zuSe2ZMNnocgCIIgCIIgCIIgCIIgCIIgCIIgCIIgCIIgCILIUF+5unpczOrVlYbtW1XindV2e3Z2dlpE79+028dXbN8umMa77dmX5Zltv3fR9i3DWJt5E6Cvx/S10i3bNw1hqRoEixCBlfd9v7Rg+7blCQUGwVsAhetT/oskce1IYADYp5XrfkjptO1bl6MxE/SRNrFyY8rvM2/75qXYKA8Uypt4eyCwdNb2zcuwXQ0iFiUtvBlZ6JfO2759CTrlWGEgp3DdH3LO9u2LWRtaKGli5dMRhe4Pm/qIg5LDZn3KH5VoW4GIpZmEQolhU7ntJxTu2JbAp5EUKGFi5YafpOR2YmyUUwrFJl5LK3Q6MeaqQZpFgYUf+GmcToxO2kJhYqxnBPr+Gdsy2GxmLRSYWPmQotDd56h6esyIh81HUxSFfumCbSkMHtAVcoZNKilcHzZNukDOPq18TBXYk+hmpXGHMmb4Jk6nkyJWeNe2GBqUpBCYGFYXLIkuJgZTH3PY0JIiYsq2nCxbrE8hc59SkyI28ZJtQWnqrA8h08TKJxyBDiZG5kAqNpE1ZgYKHUuMbd4eDckMm8pNrsCexJO2RSW4z7cwyB5PmUkR41ShscZOCoaJieqCYaJLhYbQwSA9bNapB9IUtmUNuSf6FIYkhs2g5BaY6Eyh0ZCxMGFiprpg4EqhIUgKionT9GeKjImOJMaczB4NiYeNMCliiW4kBq26oBOPGUmBjhQaEkmRMlEiKWITHUgMRnVBpz9s6NUFA9v6MiU3n6Nhw6guGCYu2BYomRQjJjKrCwa2Cw1mdcE0UXwgTZpoudDgVBd0Fiklt0Ci3UKjAxQYBJ8BBVouNKglN5fq5yWoQpsVOHDM9ChveGfBEn17hQYoKfoKG948WKC9xGiC9+jMVu+yHfg+tZUYwKQIqfcuuwA30VJigJMiqK4dXXgabqKdxAAbWO4MrjwDdtHK8ZRbctMtbA4uPflCJAY8KWYexBcrJEbxhcYG2MJg+L66QmIUXmgoJkXEJfg+LbrQkK8uYuqj10MegvsUXIEDqosB1bnEAufhJhZbaIANLN9PrXAObGKhiSFVcictbKaWuAg3scAvTRWSYimzyILLiSFZco+S/WWTwvG0sMTYhifFJmWZW+4mRgfsYEBdB54YBVXguZMiwtXEELx1QaG8wVjqLnzYFKFQobpIJ0XEvJOJ0czzTJEGXmgUkBiK1QUdFxNDubqgo5AYpgsNsIGMpIiAfYkRYjgxtuAWbnMXVCg0jCZGA2wgMykiHKvAGW9y8xSKfmqvUGgYfM1Gobq4J1xUoQI3lxji9/MysJMiwqUKXHNSRLhTgdfBBgYd8aqeSqFhKDFylNx8XKnAc5XcfBxJDHjJLUyKCDcSI2fJzUehAtefGAE8KQCrw03UXoFrqy7oKBQamhMDnhSZkpsPvNDQnBgaSm4+thMj8yN0IdJJEaFQgetMDHjJXRYfSJMoHE81JkYdPmZoJTcfeGJoNHET/o22wl+Bm6jvaR/81ARKigjwsNHYu0EFlu8o/RlwYmh7LxM8SZklNx/wl6ba/qeX5qtAsl+HyrHjT4HQVoDvvgbkFUWevAHjiy81KRw/NQlibEKVh8uvQ6jpUtg98RIIos5XrWMAal9rUujBBE7kUHhlGaLwmC6B3jeTAIGXcwgk5FuAia3vtCncg2zTXALJI4DC2p/aFHqXi7KQkO/l92lLn0DvB3kTcwokRN7CHzUq7B7ICswzZvo8ljSxta9tkoZIfxJzCyTkJ7mPYu1tnQI971+5capBoGRitH7WK7B3rpERmHfM9PmvJqFwWdd5JkYqE7UIJAcS21RjFkZ0JRTqsVAqMfQd2IZIJIYmgYTsi1zUmhQxwsTInxQRosRo7ZsQKEwMXXs05Be+iTrPa6MIEkOjQHKFO061J0XELjcxdFpIyK88idqefDM84e1TrQIJ4WzT2m+mBHrdwiwk5Hf2sGkZSIoITmJoFsgpNHQfSJM8Yg0b7QKZidH6w6RA7zlj2OjeoyGMQsNUUkT8RTfRgEBGodH626xARrNowkJGYphLighqYhgRSE2M2j+mBXpdSitlxkJCHmaHjd7qgs5hxkRTAimFhtmkiMgcT/U9U6RJFxqGkyIiXWiYszCTGPqrCzqpQsOgwFShYaC6oJMsNExamCo0TB5IkySOp0YFJgqNApIiYrQCNzdm+gyPp4aqCzrDQsPsHg2JE8P0gTRJnBjGBcaJYay6oLN7oigL4wrcREPKY+9UQRb2EuPIxOVCTjOjHM3TIizsFxpmKmCRxMlCLCRhoVHMeTTN+MFYQQof7xc6Rkc4nBgzHYeETIyRQ0v6QvaePuvdgjkmyLOnzy3qO6I7bpKubXkIgiAIgiAIgiAIgiAIgiAIgiAIgiAIgiAIgiAIgoD4H++dQi4A1J0LAAAAAElFTkSuQmCC;" vertex="1" parent="aCxlsfGfSEMQHci3j_Ye-14">
          <mxGeometry x="90" y="40" width="70" height="70" as="geometry" />
        </mxCell>
        <mxCell id="aCxlsfGfSEMQHci3j_Ye-25" value="" style="shape=image;verticalLabelPosition=bottom;labelBackgroundColor=default;verticalAlign=top;aspect=fixed;imageAspect=0;image=https://blog.postman.com/wp-content/uploads/2023/11/What-is-gRPC_.jpg;" vertex="1" parent="1">
          <mxGeometry x="270" y="395.89" width="110" height="58.21" as="geometry" />
        </mxCell>
        <mxCell id="aCxlsfGfSEMQHci3j_Ye-27" value="" style="outlineConnect=0;dashed=0;verticalLabelPosition=bottom;verticalAlign=top;align=center;html=1;shape=mxgraph.aws3.management_console;fillColor=#D2D3D3;gradientColor=none;" vertex="1" parent="1">
          <mxGeometry x="-181.5" y="343.5" width="63" height="63" as="geometry" />
        </mxCell>
        <mxCell id="aCxlsfGfSEMQHci3j_Ye-28" value="" style="shape=image;verticalLabelPosition=bottom;labelBackgroundColor=default;verticalAlign=top;aspect=fixed;imageAspect=0;image=data:image/png,iVBORw0KGgoAAAANSUhEUgAAAN0AAADkCAMAAAArb9FNAAABI1BMVEX///8AgsYAdKX///79//////wAg8b//f////sAgsj9//35//8Ag8T3/////P///f3D6PQAersAfsTx//9vt9kAe8P///eYy+YAgMkBdKMAeb13utWx3vAAhcMAhMoAfbwpncjr///N8PwAc6gAfbnb9PgAgroAbZoAdqHo+/8AbaJTnMAAeLZZrc8AgLgAfrAAfc5Mo80Ab6jP8vV5v9a25fIwkME/ns6Mx9xottGa0eam4O9Zosza/P+ExOExi7S13+ZCn8F1weOCxtdosNgmlMtZrs253+6x6fKW0uGMweCRw9Vsq7pHp9c4kczU6fIle54riKU+l6oohZ+lztiIusxYoLhCkrGP0+eLvspgqbgAb48AhrapxeFMqsqn2fSp6/0mRGULAAAXpklEQVR4nO1dC3vbNpYFDYAEQFIUSZOGaFE0JVGW/JAty6YfiZ1kajdxM9M2O0nT2fHs7v//FXtBSrYsx0nb2VhKl6dNqo+mVRzei/vCBYhQhQoVKlSoUKFChQoVKlSoUKFChQoVKlSoUKFChQoVKlSoUKFChQoVKlSoUGEeVFCMDEMIwuDDfRhEUIRI8ZkQ8vSD+/cAIwZqCKgZTGAyuXT34xA7hFIGoESwefLLDoqJAqIM+eNxOCcdQhhqHzYzExGT0sWM8N+BgYgDgiGDo8N8eDN+8HMnzYMkPj5p2yBk8a2pJjFZjdj107ybcOmN7PsCwgKtJ4GUnptsnGS4tqBB/mEYlPlnxzuax3Up42AdTRUQiIGsWDOwrNiyODBMDsU3p5wEt3ck1zRNhz/cbVKgpSAEoqaT7XFuaQrcCnYXPNQ/AIHHQ0WuYKd5vbHipUCESeyRa0n9G2aH8bh3x47vj3yj1D+KHParq09E9+2ym5Ed14J1s7hOqIHqQx3Ytb5pdlmXa1MAm+gZctR15Pi5Z3G99S2zEzjr3ZLTuB7z3phSimlorwfy7ie6JZ8veqy/HwKdz7CzYrmvbZ+PAVnTnShlgZblffPsuA4ewLOsJEmGXRnHfy52EoxILHUF+LgvZ9nx58sfiEHUjGZHKWjWu7Mq0tLBvxXsLB0m4cy80/nIxOpp3H4ThhgcLU3aQIEWJHMAQm4HKVjW87Qvw+LeiGCIS5F6QiY8oxqB/AjjZRFo4aUN4AYmEdMyWYOxDW6s38AOvPqxTbGBTKbyPQcTTH1bzOdMi0MRBLOBSdCdbkI6fh7z30BOxjx+gwgLHaXckMna7Yv8xYAsTdqnKgxk3BudjW0W0jIFJ3Q8kvFvYKd5La97mDomI4gJv31yHLlSP/bJskw8TKlIc5l4SX5R99UVMDBnsSV/g2ZyiKYtHuTg6ZE9vsiTBMRp6dGq6SyLZaGOuesVQ3WjfLd5Tli6vsPBGn6ZXQndG5611zdcbxKVxrJ7jUzK0BLMPmaSM7ccloSULrBGJ6NIyt/BzuLc9SBXhydSkI2l3GubxFmGtJbRca9IVLWWHgM0D2hyzdJan+d0BymtWLcsa/o8LE9aeRrWloAcIv6Il0R0vcWV0KRngdf+7bLjKmWQfCI6TSm1FVwQZwkUE6NfIzkdV0u3YhgliE3FJXfDn/y3iFa0h6zhsYDs7oQNYanerTNjCYQ3uNnXZpjMAdRNoaCrxm2BHj568x1bbnXrECAsmhtCPw1l3HpUCyE5iHWYj5beKqyG1OMveQppQXab/CDoXWC3OJCToCUfZacXdT0ZBIH0wC6C1urWF8yNF2tSG/lObRlsZuiP9MfFoetgADv56Pol4OK4B77iC6JT/g48giBoGcIxgrLeYyPmyoQE+bMUfDOFoMYcnN0klpwalk9PVwhghteIhCZehmiFsDc7MFe8+cmnDArEIb01E/KjkGEKiZKg/noE7hviLzCeD2ReVj8t79KmSxKIQfRrH0ZgWOaHypV1sHr10AmpASkpZiGkOAZuei1lOcEB8PnpWspS5plYEm5IRUz+q335IFuFCETymzYWxMR2+lO9nplIOH6IXnY9z3U9K7Y+yY67zeVZ0hOEmngca9a84eQxl8Mj02E0/Ok0dwM3Pj6zQweS77PLv/x6svo360H2Xq46rJrmokndwgB6GDVd+UDPrH33O+Qw5p8Mg31u6bHnbrQJqClV1pCI7GJe3oqdl6fOMmQHEygtYuZqoM1bwFaQpwYO7cuuiiF1ZWa03jgMMVZVGAaZYTZK7j0TyAllUhcGXgI/PgPI6a7mNVO33DMcGhCH3tHWZS8VSDCVu1EWOv56YM3wAwFL9w2ownKxc2g6nNdMLuNzEeJsOOMqdGv/kDBGfN8XoSAspKf71ozMQbzeLmLG0tTEClB0Hc17BKm9AhmQQy+ZyRYs2R3bR5exHl8emaEwwzSf9ekqcOtlINmlMZoKgozmvRd345eQ2trH2kxSoHM9eDVyIZf3vJ1VX1mXl+7M77UggwqeUWIuATsC8RXIjYFLS4dama5avGVBVG1B/DXAjNIstuZTHo8XwbQW7dqshvxcxrq8FSDwXiWqi6XIf8QCY01j2mPDWD2SU98MOY6uuX8ZKOMhzHGgQpNPgEvNvcaGEIfBfqs3k9O2bt6kyDFqBUOyuKgFF5ZP+a7zVa5Zk+IKpHI8uQaTD7ElRuNu/MARltOS6zL3HTPMvssTb39m1YG7N+tHaeHRawaY1wWBMewAw0Hz+2G3iJm10qi3ukcoDG0HZdenV9NS1zwsSOOic2YyTMzmi5knAKosvSDePcsgs3AW10ZGIKdJX6/2Ik9qeqtMuiGYVuVIR4QoO+0GKlz+ZP1IrQXJnToTEKkJlh17tzfpqioGmhCp+ra/CF5YYKWQaR2ogbHkRWGrjIFbMlqHcIuS5l4C1gXsxyfqRCWNVvQGtJs6Nq2lr0Ajy6UHrvKjlvo1L9q5er0AdmDKmHm0ngcP6+m6t5GGNYauu3pLfiZrL7Dxw9u6HxqhbQw2tPhBAaPFg7eLYMeA3YvA07UH8ZcWg0URqA7k7pX9PgkZBG5+ZGLq0DcqGr3/U97i3voC2IGHo/aPoJHWg/RafzEIcZi+kKq83PpChQgyXF12TxBmNrsMHpTLLN29XAA7ZIQo7amqsZwfbu+vaknvzFVia33aGcxKR8JX7FxjYRr1nfmbwUJ5f1sEO8RQGSHOPG5dxYm9TYi/QvtHCBj5l7hphcUB7b5JHSr8m3nNhMfjbSxkpZKiQW/axDcdKgfJdTYzCM1+Sr5YcJ79vZ0z0E1yOZ+r63orWBQ7P59nB564sdK3Q4Feu/ek+nm0dG/VxCG9+AS7xciOCGQ/YGfFw8bKz4QKDNPuoZo9BkiLjm3K2MW8Y1R6O1pE0faT7OK9xkrnZx/RcC2wfg+7YGRCQn7ozee/kEZdLoKdQMgsQki1CKKXcUrcazRWVvrnMJ5moH/JpOi3j0ZawakNwfh6yc5Sa0AqDODgDfMmXUBJmmAidt2EQxip1pO5WrrrrQC7/lYdLMRP0Zf8uEp2Jw/AivebDmbmdhkZcAk5BkQJSTc/GduQZj09cGg6g/r6lZt48Jx1IBkrciC7rfcUh/4VpKSfZ9fiajWzWK7cz334nfNJZcaCMHPf6+YXbb9IjRfAjjJI7Qjx6xejJPBU5Nvbayh2na1fiEPJevAlk9nSphrdil6GJhNnrjVtLhhuXBwBYSHwYhIgTDBiVNXm7PHaKI40ZS4BSjd9YbDz5EvNOFyLtCK3CIbPCGZskHulNsvebt1XnapKbgvqOpo2TlGEqZ1B/top2AG/rffEceh1V3JZFGmLkEx70FjlXZ5tR1EQDFfHQuW6h9N8Qw7HKCw22izLBiic9m/Zdd75EPPbp4le9GhArKnWS2YVtRCR+56aWb1ZHwjwIA5q7kF+V9K+SY2lWQMqINB/HKyUqtnpb72FbNuxD7tgHiAJsLj0NG92vadgt9fGBAQPniA0kXk05GCHinuCVbU/atGMZkHQ+61b4e388yUKIQN8nQeBmlhesrfR0+fYebkfijCkRISC2d91YQ6W5SXuHtElY0dRtjlh11g5aPx8zqiAqP/1an4VX734oe1fJPeTCR6dkdAUhae2jz4OVftO+QB4nmK8XLVohs1ftiaig3+2/j5GNdVOiux0kJqMhmnOlZZK8GZFA3+S+5AG2vWs/f7Du82eittaZezm7ZqLq/J9GqKGmhN2BTr992YIzgryWAfkA5l8u6s8m+StojdHDtu0JuiHza2VrYNOb9Z78G4T0yVawAMI2/zYvyPX6Bxs/tJWSzw0ZAz8VijM+lCTHpgYVWMPkrqyJuf9Tgc85HCu4tDL0IOtsguFgf8xKzoVtRxsvWpmprIPpi3MUOBsFHmxCkyTnecZVttKtjdBiztD637Mpu+/Speiv+8OP20edGbYqT/9za3Gi18OTw4//vzWBNPPUH31apgM890jUzDi+B82VzqNRmc+qLGkd7I0C+cCQgqa/v2g0VhZuSe+ThFVb21tdQ623iOloZTYg8HABufNkEHebjUODlb2HkRswG54hCBWXYYuOIFMRtan/uDTaGx+8DF2wLdhjMFVQJydftjsKBn3HoRoKmu4ySC+XIY+MYcJ9hoMX/8z7CBz+FgnoerKAQtKBBMv34EqN/qNnv6w4hlr++6u7SzFRnSTOoOfYQL1O49zA+pbmx9f+0JF/hilzY/ArdNvHIDkHvSYyRiy9WQNvOVSzD57G2ZYv7PyqG42+iudla2Vzf72h8OTtx8+bm42FOO+MpcPc1wZq2USr74M/ZnYUSFmaUQ+yazIaQ/6DXBtysRsggOHzyoP7HRVNVvXyzWk25a/ltoSJXk+WIZ5h7L+weNi+xz2JgaFq9UxXrj5abzCLdkbLF50CKMPB3+Em3J0E2Gp/9xtAZ58DK6ps3jZ4TD7jD35DLuVWJuUPNX6w2xXh0rn5XFqLIHJxCHMuz8ivF58u16n9mZ4fKaz39K642UwKuo8ERuSn/5KGauAGCE06aysNB4wLu3L5ONKT0WXZcUWSEbHl93IK4jBLJSa+6vqal00NQVCBz+D9BpFvA9+u//usN/4FL1bdFReMFVDHSxIsJsS/2j1yg2ktKye7n1vL5rVFJCN1fudUnhbW+/+MbZR9u6zsUtjZUpOV5Vs3j3xHZUB++O3x0kEksvTxRuUEgQZAqbeQaOzuflive4XFcjB4ebWo/Qajb1JgUhTVewkr2MbqW2zEKXZ2dlorzdehiCsBMRL1DwEah/qvtqO6yCzRsyXLx61pGAupzayZbX4VUqYKvFB+OkgESIyyJZi610JCjkQst/XwQg4MERMiGEaDmrPy64sxKtp19On5lL1s+Q2c6alBoKVqQwJXQqLMotZZYLBZZsPrQnYHbAoMzvRlb28spdHUr8NAuF5dqU/AH73dp78WdipPEI5ib17S19/Fnbg5BU67r0dNVzNu2+NHSVoMMOucOybp4d/PT2sH+2pIzumeR18/vZkB1HULLu+Wvj6a/ETjK5dHrcm7Cyue1f2cnWwfxmKXX+GHFjLdyljxZ46ezWwbpfMgV3v22OHZ9mtdPqdzbE63c8RNeakr/annYF/Bnadlf7miTpmRFBhUJNlt7HKN8lO7XsCdpOcqNHvH/xiC2GqDVFCHanZjKwy+/km2UHeIAb9RlEpUksFjZ8zdtd3Qqi5Gulc9W6CffG69tKEzL8RjhBp/0CJDSIU8HQvkTPDzsRp7nHV1C6D4Oa7Zdg48juBzZf/2VerzZ1Gf/PUZLP9C5jR9p6mt7Rob9QcLG6MfxwY8tFB82N/8+Bg610qQnxXWAa1NdCzKEpGZ5mt2nq+Mag8xqSq2pq+PH33zyPsmDMpBDFroW2evU5NcBJLUZL9o4Cx24OlWA/4OjCWpmXoqwAv1yL4/yUIIX9idhUqVKjw/xdYmJMiMcNkElsR5a9n7iGUEtXZoFYFEGVC1dBxcYb53S3mXO8sQTV1XHaZRgh12nlxN1GtLWUr6v0jRL8KCKnVHCoUircfTC5TFpYXFRjDZXjiUKxO+SSGYZoGwY5xews2ioWjma/FghEDCE44m9hwVNuOUSv7W+BhOOqbvi47iPSJSdSgsclCNjm9u2jQxlMUD5sxdREEaKgg2XCounB3iyh22tyCwh2YwS+W5DBjkx4qKkylBvCXIGL6//t6MIrTMqcoP5lEHQR9N1Q1NlIchgpPAhIhDKIz0L3dPI4jyMx7A2jxxylkqr62uFs9BkqVyISo1cgTZBICJJHVp8jsQm0gT727puBjJBi162u7u7snRykKBbLrR/dusdHsKx+Yrb4gQ6y8SP3pbe3z4t0XzCmuDL42Q5DR2k7iRtHOTtS9ydfbIYXshqxGUeBGO26BnTbFDhuPuoHneZF7czggYbrndqMogh/uBG7X3cnIbeMzaB097+5EO9t2OLnWPojcnSDYcdWOc58Jx/TVbze/Mjmli2uBOj4yVodcekn3ujjDZ9VTG3jLxWLptmFStW/U2RW8pUse9F5SP5a6F1uWrsc693h3MKun8MQiyWW3PjVTbVdtLWq14E4vyM8ZEn6s6U/DLlI7x/b33UB6mkzatYKdpsNFTyHYa9PQ3N4HWiCrYJ/ryRuc3rhe4HFpSRl5gRacTzN1ouay3+Nc86zV6cW227KkmwSBhKvdY5+Efk/TnoidZf14tra2tpprMnZP1V6dVY/zq9USl6cZolmkx8no2fnR2YvAvaCOvaYwkrHMfz354WTNn26qU3+TZ24r1i1vmE6ai4Cdbl38618n/9XlFo/ew0zsaa2nYefp+rHaCyjSV56lXfkFO13e7QunNbUxVIvbap+I/WzbFiQsHNxhEMsNk8LsDaedpcrV2yOucb0l3ZM72enuOYM7j3otLncJSuOnYgfz7tiGIRro2pVWLy3nXXCJiuZLqkw9/e+hlO6bIj7BJioP5CNoPdCBnVrbI1OrQgVD9cjS+Y8J57kP3ltg3N7hepRhQkO0KkFTbAyy092n0UxdOyaUMBGeRVKbsIuTqeyIwwTKola837toq/YOQqcmBNh5Bbs7kJogp4HG8/9JdJ40IfCCTF6xc8es5jjoxJNa/JTsXN07NiHyctAlmJWJZrbk1WGB9UNwS8J/EeiWFblX60epuC3UfoqdQ7MYJH9ijjSNj8zQBLql7BwIz9C61/JyG6VPx056G75t+uffdXXd3TVLzdTAWhY2s9tGtZDUE0+CaQCvkTfNMHyUHRA4CcACZei961lJ3QHRI8UuOUcQ653nwPmVyZRHeCrZtbgLLtn1pC536lN/p7eKA2q9oM0Ic1B7ww14rHb+uKeqTeoRdg44C3AHpwgNcml53yPCSnbRs3a7fnZl6Vp0gsKnYxdp6gUHqmG0pUUXZslOajxxExf+PWiHJgoJBF+ruRdY4ASiZ4/LzkHXiS6TZ1l2fgjq3csoZYby5loAAVEAqq/dZOwJZRfp3HIVHTB0176aU8ojDHezCUzI/NRxbwj547PjQOfa6PF5h/0RENDjPUvtXLeSCySMwiNAcCM1CYHNsGk6TzjvgF38/PnzBBTpbz6tlbJrgUcoLaOpdoEQ+7XJIJRm6fN9CNoGj7KjR65sWVwdRKKrntp8gB0CsrNk5AZustP7vo2cGnk6dkErGdnUHwWWtnOBnNKq6N6UHQrBB7Br9zIjDjHxSWDpcfYoO7LrydjztCDRXZdL7j5DYRFn6hcqpjk6hyA7JObTaSbo2rGPw2xv3+JJnU1sZrybDtKBwrnviNcQhObXmYnaucW13H+MHR4nmvRGl99f7l5eXl6Bkh77otDM7jlSWR5RbxIgTzPvMOQ7ay7nxwLCpDNgJ/NUvfthdR/sXrdEcnDG/KFnSc2FHCnhPR4dFr8s8DoEbBuQFLLJk3IQPYT4e6K4FDUjbnl1Sttu3HIzUry+ozgLTvgWt7rNJ8hg11xLOzbVK1J2IeJ0T0F2Yj3RJx3OYGuis5Ad9QJ10D6kMHw/yNPJRk/Vp7Jxe7g85OyOD9LyVievwxBpDg7lexu39yH5yOAh4PIpUOzH/AlyBBritSgIju3QEOGgF3j7QVM4IDtPESkRnEEAMlhPAk96YFqT0XlYVBQoXXc9b8NmrHR/wjHYrzuJ5tbLr6YIn7gy6LZZeyeWbgYBXfFUiDrKF5xi1Pzau2Eh6n+/vb19akOYb6LX28+3t3/xHfvt9ixew0MwUPbrdt6L8++P/GmFiLyF+09NOul+gKfCPsCV9bIpAFMjzNQXvqcZfMnHjE22ZRNHOPYv8IP6VyYHWlJsJzYdNRvK19oQ27l/FAOhjimwOhrSHwyUPSGlHRHFozed2qQ7BQuzUNJpxwM1qHpjEmFFT7Rdg4hncqPJ1PuCiPjKFT+sjs1Q1TilW5SpNl/1cpS5bRHwCIRK7QykanRiptuBwq1iWh1THNQrb6cVFlXUhdSophgStWtZTIrAxZECiC7Dqe0VKlSoUKFChQoVKlSoUKFChQoVKlSoUKFChQoVKlSoUKFChQoVKlSoUKHCk+F/AST7LH4LvD2rAAAAAElFTkSuQmCC;" vertex="1" parent="1">
          <mxGeometry x="-80" y="290" width="65.91" height="68" as="geometry" />
        </mxCell>
        <mxCell id="aCxlsfGfSEMQHci3j_Ye-33" value="&lt;b&gt;Client&lt;/b&gt;" style="text;html=1;align=center;verticalAlign=middle;whiteSpace=wrap;rounded=0;" vertex="1" parent="1">
          <mxGeometry x="-118.5" y="410" width="60" height="30" as="geometry" />
        </mxCell>
        <mxCell id="aCxlsfGfSEMQHci3j_Ye-34" value="API Gateway" style="swimlane;whiteSpace=wrap;html=1;" vertex="1" parent="1">
          <mxGeometry x="50" y="275" width="90" height="200" as="geometry" />
        </mxCell>
        <mxCell id="aCxlsfGfSEMQHci3j_Ye-35" value="" style="shape=image;verticalLabelPosition=bottom;labelBackgroundColor=default;verticalAlign=top;aspect=fixed;imageAspect=0;image=data:image/png,iVBORw0KGgoAAAANSUhEUgAAANwAAADcCAMAAAAshD+zAAAAclBMVEX///9K4f8Ar9HGxsaCgoLS9/9/1+g/w9yk8P/0/f/v+vxV4/8PtNTo+/936P/f9fm/6/Mfude79P+N7P+JiYlfzeL39/ef4e6RkZHv7++hoaHAwMDg4ODU1NTNzc2v5vGxsbGP3OvG9v9v0uXn5+eZmZmIVrV7AAAKaUlEQVR4nO2c6XbiMAyFIUCBAklbCt2ALsO8/ytOVkm2ldgmytI5vr9mpsMJX2LJV5LTySQoKCgoKCgoKCgoKCgoKCgoKCgoKCgoKCgoKCgoqCO99Xq10/nY38WOH8/v196u9naZzWanvq52fp2n+urnbh7Ps0K93M3r+7zQ86yHq51moHPnsXD8mqP+dr1YrjNFHV9u9jxX9NXl3Xw7z3R1uDZPr3Ndzx9dXexooqW6dHQ3374MtEyv506uduLQ8tDrIJEdP1i0TO/ydzNP/3USD72LuSKJPmTvJr8iu1qbp/cmtCz0LpJXa0aTXZtHPti0tSmVyK52NMG1+fFsR8skYlkag02VwN28Ngab+Np0WJKSz+7i+ODSLU8kEBzxTjJR5xRy7c0KfFlbrswk6DPfbMmS7HWXvzd5luOJfGFb4MlsBUn1B8Z4UYGDzkuGV/9oKNYiJvjGtSmUl5dLwNMtM9FrlUhgAXt6FnxScFuOtXh453b7dnBRdHevf3NNaJ0pv0dyUWIMVxxTEyho69V02hYuevyEy3GhBxTayn113Rf0R4Rr82qEHjEmT5upAFwULRfV38966EGKZEoGJ8/C+RF8Oio4SZFJPJ3KwEXRn2ptqnblvfoaNSWD1bPwS4+kDBJ6JEVmK1IOLtp+w+XgEWFSrC0ZmtssDRsarr+KnyyDfEUKwqVr86H6x6JDhDHVWDI0tFmarQh+7qr8bbKIp1NpuBQPtoXzK1otq3+pcS5mtqhdm5MrLu8dQZOEi7awLaBXcigZuDaLi8ViPNZ6tZl2BEe3hUIW41LJsCyu3l+rSX9UNGE4ujadLGclxbK8OaJlIp9L4qkuYTi6LXjAqYFnj7dSF4w7SP+dwkVbXJuOy/LdSJlu65J87ElfkR3BRUvyPxr8dCVsbF7Y3dkBbcI9tu7hrFsB7uOnv3Nud65DU3JJ33DgOK8NoYf7YW4+1QfSEHq4CyS7IeBIajH8dCXMI8V+WHxzzBI1axNt5Ho/XQwDRxwnu5dj/q/ojefCbuYIn6WRoeCI4zRDD10lbhm47OpDD5dt4SKHgyO7uhp66KspNstw5dEqFzkkHHGcGHrETip7BR9YGHr4QNFFDgpHHWcZethASdP/vAaOohShR4wycZEDw5FGRJbwMUUavQc9deAifDsTq6W4yMHhyLZwwu6cmUKbMiNIc5EjgIu2L9pnuc2PyfvGpE13kWOAo42ISZ1tYeC0ac3CqGvGARdFByz2tEzSCEeaCHsToDO4Oz+4dFvAz3KjL25ZkkpvxdU1ncFNFtyzq4eLIkLHNDMNNDqv2bElWwNcvJi01MOjP1yVW2xbwUXJlQv+6dTBbX7aouVfVcezwuG+p5XqNZkkyZ+BF9zmSQIt1f3d1hMuzS3VvldrvwAtLWumnnCb1bo91mf5Fe8PvnBYDvHGGbe3fF/zg9sLoKVbAWzNydITLrWc1b5nljyYIhcbIHCFi3dwW9rBka35YekJR8qhk1KsYoqE5rg7HKTIbLtvC0e25s9HTzgyl51hmwFSJDGRrnCQR4rtvj0c2Zq/t55wWA4dywYRmi1qIt3gNqvqs+V2LwBHwidPnD5wpBy6vj8Tq6U2x53gIEVCtScCR8InOXjC0S4ZKbRNAgvcvsojZIolBEfCZ3HnCUe6ZKWM5rgVDvKIclvE4PSKzQNOK4fMssYKBxubelvk4LSv6AVH1vXORLPD1dwWSTjiqrzhyuGQPhv1gVsb1Z4sHNkWEraSrYcrftRAwP8ohhXJ3BZhOLItEM/SGRyWbAvuiYvDpakdfv5pFHuicFjXsIHa+Xzue8sQyMChH+m/QVRmP63Yk4NTSra+4SC1JAedQAAO/MgqGQKOmGLSRpKBgzySusjB+pawM0PilIDbVGh5GhmwKQuOs2wjtYeDFFm6yCE7zuA4i8zSFg5bP5WLHLadDo7z/k9rOGj9oIscelYAjjNZtoKD1g91kUPDKTOCm+F2YLUUFzk4HHWcN8NV0lzkCOCUw4pah9oBDj9ruMhRwJFtQTUtdjiwI9zBw5HARY/YiGBmX3VwZBLFHTzsDM4saRrh6PsVZrXHw23wE8xR2Ga4du10s6SxwNHhoz774uDoJCrhn04tHC2JbtS9OTq2wh3YcsiEAzuyW5vcNjiJKRaTHexNWdj3MtNSC1fZkfVq4z18xBzUVlp2cOk4QzmEfSQNDuzIz8Z7+Nh+Gp7qDuZXNHzc2ulGOaTAxUpZ4wcH03DyGsANWqJtJNnBdVYAM4Ii6RI4vazxgcPP7lvvcxg+kB2cByHYgM+SLsBhmnui5w6d4LAkygxoWzg6vzp4wtFy6G5bwa3MssYZDvJIYUDbw9H51dITjsxlk5xzgZOovUZgh4v1KZYEHLGNWXbwm89p5VAltTnuAsdMsWTgSPh8PvoOH5VyqJD+PpUdDr0MMaBCcNQ2PnjCqe9uTbjmuA3uCXKQYkDF4JT5lSccLYfY96kc53P6FEsQTh3/+sHhumbfp3KE0z8rCaeED1/rNTSI8jtTM65xgjOnWLJwNHyM03wWuJuGj81TLGk4Ej76aT55OPQj7IuP3c7naEXTARyezmPnqp0PH/XJuCBcTEq2vhtE5mk+UTi1ZOu9+7XUT/MJwuHpvHio1h6kFmwjicBBTZSlkcH6ltr8SghOnWIN2JSFgq1sI7WHw5Ithh8N1nEGx5m3kdrCYV2zJz8arp2OjjNNnO3gsP2M5d7QswJ0nC8vLeDQai20E8LDDkLUgu02uHWVR3bGCeGhpzykYGs3fOROCA8NR+dX3HG+RjjitNgTwoPDKfMrbvZVC0dGPcwUayRwSiPCnH3VwJFJlHkUtks4dvzb1NojvwjGqPZ4ODKJ4n+hSwNc3AqODx/X4aN2azg4OonynM+JjHrMVx+tcNxxPg4OD+ftvOFkXnxMd2ZtfTk0Zc3jfCYcPZznO3wUe/HRCB+njvMfY/alwqlTLD84kRcfCR4NH7d2ulEOUTj9cJ4XnNzIuBJplrjOCpTjfAqccTjPAy5uN0+tEYSP+yCEHOcjcMzhPGc4kWk4qzJ8PKY8OL96WJZwMVPWuMIJ5hFGefh4jbCwHMqf4o4ta9zghPOIqezMjed8bskFidYcd4HrGi1TcvAdPirlUC6jOW6Hi8VTZA2eL5z+XqFpIm1wP53lEV4+cEo5xLz46Dx8HCccbAtsWTM6OLYasna/kvpfemI9Idyn2FcfpYePfeURU0yxJwvXnR9xkTE6loTr1o+4SOuVyMEJnPJtL/WcsBhcH37ERbRXIgQnX7LdLuyViMANm0dMVW0kATip1o+kXh5F4IZPkazyXklLuM5Lttt1f2gJN6Y8Yqo463sj3HBWy0e3wf0Sse8G/i9wzMtNzXDjTSOcuNlXLdzviDUqsxyqgRubHXGTPvti4cZoR9ykVnsM3EjtiJuU2ZcBN2I74iYy+9Lhxm1H3AR9JBXu96VIXmXipHC/M0XyyjMLwv3qPMLoewtwo+j8yOr+roT77SmyQev/JI8EBQUFBQUFBQUFBQUFBQUFBQUFBQUFBQUFBQUp+gdGTdLRbmK1CQAAAABJRU5ErkJggg==;" vertex="1" parent="aCxlsfGfSEMQHci3j_Ye-34">
          <mxGeometry x="10" y="35.5" width="64.5" height="64.5" as="geometry" />
        </mxCell>
        <mxCell id="aCxlsfGfSEMQHci3j_Ye-36" value="" style="shape=image;verticalLabelPosition=bottom;labelBackgroundColor=default;verticalAlign=top;aspect=fixed;imageAspect=0;image=data:image/png,iVBORw0KGgoAAAANSUhEUgAAAOEAAADhCAMAAAAJbSJIAAABKVBMVEX///90zt10zd10ztx0zdwAAAD306IFBwh20uH7+/t41eX4+Pjh4eHk5OTb29vx8fHV1dXq6ur92KZswc+4uLixsbHu7u7JycnR0dHCwsIpVVyCgICqqqpLipSrq6tvxtTuy5xQS0tltMFaoq4kTFOhoaGSkpIAFBlTl6NGgoxZVVSKiYlgrLljsL2ZmJgzNDQ0Y2s5bnh6d3bOsIcTAAAAHCFkYmIAICUSHyIbLzMjPkM+ODd9fHxXnqqii2vDpoHevpIAAA4dFhU+NCQxKh0rIiETDg0oHxwRNz1CPDsREhNuamomQ0ggDQcZKy8tUFYlJiYALDFuXkoNAAwmIhyxl3WDbVQeMjsmDwg4IRU8PUMUGSBOQDGQe2ElFQBeTzoaFg5AMB9yYksiDCKnAAAUF0lEQVR4nO1dC1vayBo2kClDEkKAQBIEwh0CiIAUbb3TWrHYqrurZ49t1+7+/x9xZiYJFw2R1pDpnof3qfVDE5yXme97v7lmY2ONNdZYY4011lhjjTXWWGONNdZYY4011vg3IRzmo9FoLIIQi5oIh8O0S+UNwohYLCJEIoKoKjKCoiiqKon4J0Iskor+m3nyqNIEQVC1XLXX2B8CAGqvX9cAwYezi0avWtFUURBQtf4LafJRVG+imms29j+Edssdo94qJnTWRCJRbJXqRjc9qoXOGk1ZQixTPO0i/wjCKURPrYzPQChtlIp6AHIQgQkEGPSF/4cMJD9hiyUjDUChqaA7orTLvSTCKUEQk70hGHVLDIepMQiEG/42azCEKscl6mUwbGrIL/8FrZVHEUXundc6dd3ixlhc3AzI6YhkISMKqV+cIx8TxPY+6JRYDjI/BsglDLBdEYQUbRIuQPUnNcFNFtEzG6JVR0saELL12llSiJCYE47GBCyfqV/IO1OCWO2PWgycK/+S7dT0VMgaYCChasSNXU22qxVZpVmrfDQViaEUhbgOKlPufLdEImZgUvDnqEEUZzg7HOHbuES5nxNwY7gAYJQeAdDICAKVekQuJ0goSdHQh4zifFRQGyBr8QuYIXMJ1zs00qPRqNzJFhlo/zALetImeFtPEPJF5J0yjWpEISXTGIZevw59uGgqKHNJDssJOAmNTEDXWcY13EC9PvrYaGZQFie3x9e7hm5zLO72RyU7EEOod0HVd4p8JFIZAqOlB1m9iOL8QK0CA5cpgOWtZZR3cWZ2k84muAWKgauqIE9bX1gdA4Ozub+5DMDpxVwJNCP+UuRF1CTruPBBFB1QY+sAsMXhVxBudcAFEm8UD6NI9z/Vsjp8LPTI4Fqnjcijd401dovQbN3wao+F07tgEVQEP7M6XlC2L3WShLFmMTp7uIWiCiyWh9W5kiuNUB0+qj9UZANoDm/cBi2robNXb9mZu2AdaIJP7DAE8TzNwEmJAzD9mfhQgDNA9clHrQ7T7CN/hJ2zmOM7yyBhX/ImjcOsfQeXboj+BdSY2CjDmTqBnT0rSKT3H7c8gvGuDmf1netcLGpyuVPrGqjvpa8uO1vQ+isJIPtWiWGxDVjiHmaJUchImMUvDxbc0hyxM/oI6+eLq2PQtdop8j2MQ6utcOmx6JcnxtTzutkRgnqC5VCg20JJGosb0sJ7Gt1JewvABHCpjRgoQisZyIJQCOzp1l0lIPoVToX2rhnhElcA9f9KKKiShKt+trhbwPdbE1eE6abb2zc79ofBXWGKdpzSgeLoAt4jKhYM0nLYt4ggakdpaJVAcrlLvrHLDYsfXEOGAOwgChMh9AcM2+V3Mz4xTKmoVWJhqKNPGH3GQCc1Co1FTmjifMv2wu6B+x+4KEHLyVFoxnVoefyo4hPDmIY4BZkgaUOkFQWD6CVbc6tCJHUdiO9CDMmFfPUj+PhUWTCqXciSS9HFb8AbFicSQfSTm4pPwVTI1dBfDLLcW8wQvGXwiyDT2se/5JMHBxXHgCDWcONDn0XiE053LkgL33aiqIxIroQvRu2kCMldKAcASZ8Yipka+fMoLcEMS9Asi7GJfpfaJhFecbgtTMqKqrBUQK96pP5DoOdwZeT1TDZjvj/Glm+RJmLlHUH9M6qGS8iQuuHSMmKxbbmmU1EuzGgKsz0sCRZDpyt5oE+SH65rxTGUJTQUn9QipvVLEDsJ1C8BME3EcKSihMQsdwiMHe4b1M27DKQVmvVJACA/vTBsMiSeCLfwC2wUQVvyaZAqqjQ6XJAAdj9aVpALIScp2AX/6OBf4ywJitCobmwkSQO/VjZB8umFvEnKjKDws6mH8LKgOaey3iMsVey0A14aphEwGZJGCrY3HRsfYkiKaiCxUMiFTUTGoYcRq7GTPgi6/IrDveDOMKf6Ns4Y0xojXHU4c0wwRCpQHd6oNkN1owkcPu6BlZy0LlBECuFspcAngYNrkVg6YVgEEPlDul/R/OsCh9XksIN6vyh+XkLTY3BijDzqwGZ47XDbfstMN3VMvwnM5uyUvyE9tHN0jL0Wd3i6X9H8HA6PKpnhZQIy3JssJBWI67OLCiviEAk+jp29K2EGD65cQS/HRFac0qDw2dZE8ZHQc923u/1e0leCG+GUVimArK4jfwzibAMpPiyhxrdRIRQdC66NTOFEgkhyA3lw33AIpOjC15CxFR830xboVWTV5+k3RDF5MKyl3zDTsug41GwkrxHHqtM9g+zEu24cmdnYrz8aEACohfJ+z2aEo5Kc2Rx2IUmnzKSma+YnKeeplWmPAdeKS3mro0cEuVHTLyGcAx9T5LNDGLQyZOSKCacAOkHDMJNN3PJgd3FXWQPIwUnzJO9Mrh6IdOajBM3UChtu5d5o35ChRg6yLPqPGzklPRgayV5R58lSfGTAw22JzuSMmAHcJPcg+dhue9G1Mq4ZqGevPodCe1dZHV42HDtOTdB61EaJIvqWzcwhLDbTnNk+yRf6sBOnGedrM7jPDLN7wMJei+mcP+2ASBejxNNpgABby/g5VDoBLw4Ms1/B2OEGfdqOYbSHmx7XtfoTROq3uEPQUOeusid2JswmlXjZpMNQQoGGCdqKT/5BfbT/pKcvAzwgjAJoaArwFkIuWwMHmpgKh8MxSe6BXcxvIvQzBkcp1MTUfpFkNKbiWwbMhgbKjItFKmejEoeKyV7NMfyo43S6aIx2966vr/duytkinBP6GQNmL6iEmphM0rBHhULhxNjtD9qaJIhKZnMfpMksGeQSn+cYghYeekMVySQQdLwY5YkDTvWzr9KYBY4kaxC3IkvxJwYqdiLbLY9ubkYdo2UuWIDFyz/fg1mCv/2ZTkyy9ueAgikNhkLlhjMDKWNHVNswFwMRmKnl4e9H+fwfk5ELAG7j+bsvh3Aq666GDmSfRmjmIDYvueBCYLITyd76/Tj+Kp7/9oepFV+P8vFXr+LHfbv7PKvvDgZKZP0aR5xneNDhiNBPFP+xYYP7zxFihDjF8yc7Oyfo+yvy8uRPY7k1N7BMRS7EcZe0waniPzGs8m3995Uj4jvD4lIUuU6PhlyIY1wDc4o/ZwQnE/bGXXwBxbvu09lhBwPl3pL/Cxd5CfUWgo8Uf86YdNI7R4sY7vyHe6LvDgbMFqgwLGThROgdDbuTPluH8Xh85sUxZvhEU58YsL5PgWEUM3yudGYrbf13Qi9/fHt0nLdJxv/pLuWHsHVGQfIJQyfFn0r/JFC8vcNVF8/fvju9B+PG6bvbV5hj/PZLwpHRE4bFT4r//SeLoaPim8ZEsoOJzw+3x0dfhw2NV0F0IyoXzr/t5PPffi+Zmv+c4tPpIVqt1AUzkq0bV6BHMi8ZkBw6CT7/fnpVXE7xA0yCGsPlFB+3Mz1k9g4q5oyGesOxgeXX2LJAplaHSyg+QXFoSnZ1m3yTauwCMs6gwZCXBksqPplBshk2C+SbUNPtXzFLGBwNhht4EGMpxSdxJ2FNwRyYDGMfE88L/dTgfJvgnmOI8tKlFN/sGNfMQZnmlCHznNBPDa5WESkw7OF5UvfSTcGlzTGq9gX5lvq4nBLad9NhuFnmllN8UoclgG8KX5gD40JIf0LDjeHrNg2GqAe8nOKbr0ebqOoK5U4By0XvEj6WdTeDG1VpMGzfuPTx5xSfTIgnQGGMxxXT/Xbz000CLiH0E4MOQyHzesk+vgW2buCF0lypnC794IYaOgwjuRprNcugLfSzhu2PJjvii5CMkZMta49+9YxBh2EsCdyjBd6FF2ADFmYMl18tMCgxJPNJiz/8YMD+ycsNrrxJg6HSn4wjLUi5zDWU7MsNLk2DYVQ9b8EZ2XtimFslguYmqJcZdBjy6mRJgTNL7EQsy5re9DKDFkPcyV9ch0HTIQO2Z77EoMVw4D6OxDKkCtDXiw06DMNSb7KofhGstOTFBh2GZurtRo9FYQJ/vdygxbBqbzBYEGm8Ay2GlRBnOdzE82YMTxWfDkMhCexW+v+p+DhtY/+vFd9cquDmh94pPuweUGGo4cTUF8WH3R4Vhspwy03yPVR8SgyjytnTZXbz8ErxKTGcSb2d6Xmn+JghhYl8Xr2wFjavXPGhQWMiH3cuzNUiq1d8Ogz5qNSw18OsWvGh0RCFmJ8HSfEpfBIZnrnwR/Fh9qyaU/BpWf54YxSRk5uD+/sPXVc/9FDxs389vANgLPtzjEtEUDZrHx6Obo9/c6tDTxX/8O94PL9zB+41YfUTiRGxCR6OycKYI9cusIeKz5T+Jos38nc+HOMSkQp/7ZgLYp5hyHio+MW/rNV+O6C54oYaEwpf8/aCH3eGHio+U/w0WSi24uMxwkIF5J8svFu54jPFD/nJH22s9HgMXro/ij9etLV6xWcSoRPyJ09O4js1daUM1S878aNjyykeuj4pfkA/PTH9Atze3a+Y4eDdAzg2l+HtfDJ8UnwGvv5mLYX7A1RWux9Ykrd/I5EmvvMe9N0zb+8UP8C9Of1+jL0jfjdY8QKwqDL+iqXw5A4MKrj35IviM9zoYAy+Hudf7YD2inPwsJQEd8e3/4D7alI+K/nUx2e58oFcGZyC76CnrXpjQkqr3H+5blSTmor6+C4ELVf0RPEDXLqnKslcu1mRV76fNBzRkplMUpOikZkpUkd63il+AHfyoxFVURQfTm3jU4IoRqI8PqfGfTTRQ0BjLPJhno/6suM5HObJSdwx2Vqq4IPiw2yDQic/IgO/5vEDdPYj2PuAnVqoRdIrxQ/g/Qj+b0HEy75c/dBDxYelcxoM8dI9nxQftvo0GG66d4C9VHymCPxnyEvjZ3e8eKb4TIIKw4b79kEvFR8x9H/XDC/Zg/o+KD6VPSXmfnzT4SaeN2N4qviYoe9bgaPScGvW3xwM7xSfobHZ2Vqb6I/iY4a+t9KYZq8v9UHxA1QYmgsV/FF8OgyTz+yZ8FLxKTGsuRK0XNEjxafBMJJ77T5r4ani02AoVnZthj4oPhWG7RFnOxzjYHiq+IEEBT2cMvRD8WnkNGKTLKD1SfGpMJwuEV694iOGqv9+uOleh9728YtA9b1/+Nwyb2/7+KVPvyBDxkPFh/X9X5Chp6P62QJVhn6M6lNY2Oar4nNpCgtMpwPCPig+lS2WeB/wwhZqkfRK8RlYo3CeWSxXW0jOa8VHgp/0/0w6ax+wPyv3tvoUDhma7gNeAC/X6mcpyOHcPuBF8ErxYXe80mVCzoiq9ojwInoe7s4bNd0f8bISTBayr17xGRbkqOyStfeQrl7xW30qp0FLzRufdudB40KhccyumAMLW6hF0iPFh+UehUCD12LYwXTFih/QQYbGtqeNlLKf9WXlHizRcUMUasYdX1buwU6DihuiUNN+7lw5bxRfr1WpPP4B9S5k4LbF0ivFh6Whf0+vnEdUuTCf27haxefSA0qNdCMsNXfxwXMrVnwUSSmkbCaEZL809+CiVSg+kns6kRQjqjTSk5GMFSk+qsIqFbk3IVVcesHeKD40zn191PEjRLRCd9GQojeKz+ihJq04g8GrFbuj/9QVieIztnb/pMF1t2lJhQlUiVcLJdF8aDcbeIEBE6Cq0PPCDbMS3Xv6LwO8bPg/bziPmDYOLUjdAmY1vMTgsiBHMZAShEV5P20+Moi1NXpiMMFp2PkZA7ZQG6XxdJI58EoFZCe5m3m2rm0sSASWNZgEGGsCnZx7BuGY1gSHjvNsrFmjP2tA/aaw+j1Ay1AU5APnPkbAro6fMiD7dj9J2wlNIFfsAYddbKxVFz9rvB3mKAzlOyKMn7hVn44ssrbxAsDE7sP7e2Wlm5qXR0zU7v8AxpNnUgXsyPrjBlcCd/FXv9U0H7aqPY+IkDt9yJ/8VXafqPmRCoQGOCJbYk9/BYoR4QAXJ55/APMHIP+00HOJ0acd89SGu1OValZKCEqF7ydmcW6B+aSxlyk+1A3UQu0t/7/dS5Sztoh0/25yikT+H2Do8EWKD2F29++dmWcLfW/SjTYxofEuPy1OfOfvU0O32+qPCz1k6qP+8N2JzRA1/mOg0KxEHh+TEX81+7Cjnf+CbpGzRm9+QOgZ7H8G6I8rlQawKjGP/fvrJqUnyRKkpOvb+KuTu+lnfvvu4/Y+uKzrcLqfZhl9h5BtpcHZQSWpKMmxRTGPQlj89l6k2McXNIA+5Yd/bEfceXc6ruRy7UEfpOsJt6c2zgJCTj/s1ECjmpOVCB9V5QGwzm1A33co7FqbYVj5gD5k+zyX+BEY4H3sopbMNRvnYNQ9TFgPp3TWd+shliVjBD41NvGt+OnUYV6VG+/z5tki3+LHXySKHSghCeJ5cGtV4R1oJpVIlOejEVVLZqq9whC8SWdLCZbhuOlDH6H5AEgOBnVELn0DhhfjaiUpq4K1Fx1RTG4/mI8tC8UfBhSWYUwQ074cH70z1fDVw2lbFqNWGQnJXKV6MLjoA3BT7hjZw1Jpq4jRKh3WjW66vAtA/2JwUK3kkpoqpPiwHVHCUSXz5YG87R9fQzmaPShebYLvpArjJ9/vM1psKl2IZEqQNDmZy2Wqm71B4WL/7LxPMDw/279oDHqb7UwmmZQ1SUhFp/QIolrmGolGfOf9doXKM0gnELSD63/wI9WQC+a02Fwpw2HMMiZKioaIJpO5TKZCkMHEMDVNkcQYYfe4lsIpLVcAX7+CRk6LUO0E86LcBg+3397XNpOK04F4iCXyy2gsEhFESVIJJEkSIpFYLIpc9gk3+76Ukqz2em3nd/UT4YhWaVzf9zKy6HZkRRiDn4K8dn9jXlRQLQu+HIThXpKYkszkZDXmdVHC4SgCfYI48EUEwXN+5lv/AvRM/DolWWONNdZYY4011lhjjTXWWGONNdZY49fF/wA0NDI+95YgVAAAAABJRU5ErkJggg==;" vertex="1" parent="aCxlsfGfSEMQHci3j_Ye-34">
          <mxGeometry x="10" y="115" width="70" height="70" as="geometry" />
        </mxCell>
        <mxCell id="aCxlsfGfSEMQHci3j_Ye-37" value="User Service" style="swimlane;whiteSpace=wrap;html=1;" vertex="1" parent="1">
          <mxGeometry x="150" y="80" width="170" height="200" as="geometry" />
        </mxCell>
        <mxCell id="aCxlsfGfSEMQHci3j_Ye-39" value="" style="shape=image;verticalLabelPosition=bottom;labelBackgroundColor=default;verticalAlign=top;aspect=fixed;imageAspect=0;image=data:image/png,iVBORw0KGgoAAAANSUhEUgAAAOEAAADhCAMAAAAJbSJIAAABKVBMVEX///90zt10zd10ztx0zdwAAAD306IFBwh20uH7+/t41eX4+Pjh4eHk5OTb29vx8fHV1dXq6ur92KZswc+4uLixsbHu7u7JycnR0dHCwsIpVVyCgICqqqpLipSrq6tvxtTuy5xQS0tltMFaoq4kTFOhoaGSkpIAFBlTl6NGgoxZVVSKiYlgrLljsL2ZmJgzNDQ0Y2s5bnh6d3bOsIcTAAAAHCFkYmIAICUSHyIbLzMjPkM+ODd9fHxXnqqii2vDpoHevpIAAA4dFhU+NCQxKh0rIiETDg0oHxwRNz1CPDsREhNuamomQ0ggDQcZKy8tUFYlJiYALDFuXkoNAAwmIhyxl3WDbVQeMjsmDwg4IRU8PUMUGSBOQDGQe2ElFQBeTzoaFg5AMB9yYksiDCKnAAAUF0lEQVR4nO1dC1vayBo2kClDEkKAQBIEwh0CiIAUbb3TWrHYqrurZ49t1+7+/x9xZiYJFw2R1pDpnof3qfVDE5yXme97v7lmY2ONNdZYY4011lhjjTXWWGONNdZYY4011vg3IRzmo9FoLIIQi5oIh8O0S+UNwohYLCJEIoKoKjKCoiiqKon4J0Iskor+m3nyqNIEQVC1XLXX2B8CAGqvX9cAwYezi0avWtFUURBQtf4LafJRVG+imms29j+Edssdo94qJnTWRCJRbJXqRjc9qoXOGk1ZQixTPO0i/wjCKURPrYzPQChtlIp6AHIQgQkEGPSF/4cMJD9hiyUjDUChqaA7orTLvSTCKUEQk70hGHVLDIepMQiEG/42azCEKscl6mUwbGrIL/8FrZVHEUXundc6dd3ixlhc3AzI6YhkISMKqV+cIx8TxPY+6JRYDjI/BsglDLBdEYQUbRIuQPUnNcFNFtEzG6JVR0saELL12llSiJCYE47GBCyfqV/IO1OCWO2PWgycK/+S7dT0VMgaYCChasSNXU22qxVZpVmrfDQViaEUhbgOKlPufLdEImZgUvDnqEEUZzg7HOHbuES5nxNwY7gAYJQeAdDICAKVekQuJ0goSdHQh4zifFRQGyBr8QuYIXMJ1zs00qPRqNzJFhlo/zALetImeFtPEPJF5J0yjWpEISXTGIZevw59uGgqKHNJDssJOAmNTEDXWcY13EC9PvrYaGZQFie3x9e7hm5zLO72RyU7EEOod0HVd4p8JFIZAqOlB1m9iOL8QK0CA5cpgOWtZZR3cWZ2k84muAWKgauqIE9bX1gdA4Ozub+5DMDpxVwJNCP+UuRF1CTruPBBFB1QY+sAsMXhVxBudcAFEm8UD6NI9z/Vsjp8LPTI4Fqnjcijd401dovQbN3wao+F07tgEVQEP7M6XlC2L3WShLFmMTp7uIWiCiyWh9W5kiuNUB0+qj9UZANoDm/cBi2robNXb9mZu2AdaIJP7DAE8TzNwEmJAzD9mfhQgDNA9clHrQ7T7CN/hJ2zmOM7yyBhX/ImjcOsfQeXboj+BdSY2CjDmTqBnT0rSKT3H7c8gvGuDmf1netcLGpyuVPrGqjvpa8uO1vQ+isJIPtWiWGxDVjiHmaJUchImMUvDxbc0hyxM/oI6+eLq2PQtdop8j2MQ6utcOmx6JcnxtTzutkRgnqC5VCg20JJGosb0sJ7Gt1JewvABHCpjRgoQisZyIJQCOzp1l0lIPoVToX2rhnhElcA9f9KKKiShKt+trhbwPdbE1eE6abb2zc79ofBXWGKdpzSgeLoAt4jKhYM0nLYt4ggakdpaJVAcrlLvrHLDYsfXEOGAOwgChMh9AcM2+V3Mz4xTKmoVWJhqKNPGH3GQCc1Co1FTmjifMv2wu6B+x+4KEHLyVFoxnVoefyo4hPDmIY4BZkgaUOkFQWD6CVbc6tCJHUdiO9CDMmFfPUj+PhUWTCqXciSS9HFb8AbFicSQfSTm4pPwVTI1dBfDLLcW8wQvGXwiyDT2se/5JMHBxXHgCDWcONDn0XiE053LkgL33aiqIxIroQvRu2kCMldKAcASZ8Yipka+fMoLcEMS9Asi7GJfpfaJhFecbgtTMqKqrBUQK96pP5DoOdwZeT1TDZjvj/Glm+RJmLlHUH9M6qGS8iQuuHSMmKxbbmmU1EuzGgKsz0sCRZDpyt5oE+SH65rxTGUJTQUn9QipvVLEDsJ1C8BME3EcKSihMQsdwiMHe4b1M27DKQVmvVJACA/vTBsMiSeCLfwC2wUQVvyaZAqqjQ6XJAAdj9aVpALIScp2AX/6OBf4ywJitCobmwkSQO/VjZB8umFvEnKjKDws6mH8LKgOaey3iMsVey0A14aphEwGZJGCrY3HRsfYkiKaiCxUMiFTUTGoYcRq7GTPgi6/IrDveDOMKf6Ns4Y0xojXHU4c0wwRCpQHd6oNkN1owkcPu6BlZy0LlBECuFspcAngYNrkVg6YVgEEPlDul/R/OsCh9XksIN6vyh+XkLTY3BijDzqwGZ47XDbfstMN3VMvwnM5uyUvyE9tHN0jL0Wd3i6X9H8HA6PKpnhZQIy3JssJBWI67OLCiviEAk+jp29K2EGD65cQS/HRFac0qDw2dZE8ZHQc923u/1e0leCG+GUVimArK4jfwzibAMpPiyhxrdRIRQdC66NTOFEgkhyA3lw33AIpOjC15CxFR830xboVWTV5+k3RDF5MKyl3zDTsug41GwkrxHHqtM9g+zEu24cmdnYrz8aEACohfJ+z2aEo5Kc2Rx2IUmnzKSma+YnKeeplWmPAdeKS3mro0cEuVHTLyGcAx9T5LNDGLQyZOSKCacAOkHDMJNN3PJgd3FXWQPIwUnzJO9Mrh6IdOajBM3UChtu5d5o35ChRg6yLPqPGzklPRgayV5R58lSfGTAw22JzuSMmAHcJPcg+dhue9G1Mq4ZqGevPodCe1dZHV42HDtOTdB61EaJIvqWzcwhLDbTnNk+yRf6sBOnGedrM7jPDLN7wMJei+mcP+2ASBejxNNpgABby/g5VDoBLw4Ms1/B2OEGfdqOYbSHmx7XtfoTROq3uEPQUOeusid2JswmlXjZpMNQQoGGCdqKT/5BfbT/pKcvAzwgjAJoaArwFkIuWwMHmpgKh8MxSe6BXcxvIvQzBkcp1MTUfpFkNKbiWwbMhgbKjItFKmejEoeKyV7NMfyo43S6aIx2966vr/duytkinBP6GQNmL6iEmphM0rBHhULhxNjtD9qaJIhKZnMfpMksGeQSn+cYghYeekMVySQQdLwY5YkDTvWzr9KYBY4kaxC3IkvxJwYqdiLbLY9ubkYdo2UuWIDFyz/fg1mCv/2ZTkyy9ueAgikNhkLlhjMDKWNHVNswFwMRmKnl4e9H+fwfk5ELAG7j+bsvh3Aq666GDmSfRmjmIDYvueBCYLITyd76/Tj+Kp7/9oepFV+P8vFXr+LHfbv7PKvvDgZKZP0aR5xneNDhiNBPFP+xYYP7zxFihDjF8yc7Oyfo+yvy8uRPY7k1N7BMRS7EcZe0waniPzGs8m3995Uj4jvD4lIUuU6PhlyIY1wDc4o/ZwQnE/bGXXwBxbvu09lhBwPl3pL/Cxd5CfUWgo8Uf86YdNI7R4sY7vyHe6LvDgbMFqgwLGThROgdDbuTPluH8Xh85sUxZvhEU58YsL5PgWEUM3yudGYrbf13Qi9/fHt0nLdJxv/pLuWHsHVGQfIJQyfFn0r/JFC8vcNVF8/fvju9B+PG6bvbV5hj/PZLwpHRE4bFT4r//SeLoaPim8ZEsoOJzw+3x0dfhw2NV0F0IyoXzr/t5PPffi+Zmv+c4tPpIVqt1AUzkq0bV6BHMi8ZkBw6CT7/fnpVXE7xA0yCGsPlFB+3Mz1k9g4q5oyGesOxgeXX2LJAplaHSyg+QXFoSnZ1m3yTauwCMs6gwZCXBksqPplBshk2C+SbUNPtXzFLGBwNhht4EGMpxSdxJ2FNwRyYDGMfE88L/dTgfJvgnmOI8tKlFN/sGNfMQZnmlCHznNBPDa5WESkw7OF5UvfSTcGlzTGq9gX5lvq4nBLad9NhuFnmllN8UoclgG8KX5gD40JIf0LDjeHrNg2GqAe8nOKbr0ebqOoK5U4By0XvEj6WdTeDG1VpMGzfuPTx5xSfTIgnQGGMxxXT/Xbz000CLiH0E4MOQyHzesk+vgW2buCF0lypnC794IYaOgwjuRprNcugLfSzhu2PJjvii5CMkZMta49+9YxBh2EsCdyjBd6FF2ADFmYMl18tMCgxJPNJiz/8YMD+ycsNrrxJg6HSn4wjLUi5zDWU7MsNLk2DYVQ9b8EZ2XtimFslguYmqJcZdBjy6mRJgTNL7EQsy5re9DKDFkPcyV9ch0HTIQO2Z77EoMVw4D6OxDKkCtDXiw06DMNSb7KofhGstOTFBh2GZurtRo9FYQJ/vdygxbBqbzBYEGm8Ay2GlRBnOdzE82YMTxWfDkMhCexW+v+p+DhtY/+vFd9cquDmh94pPuweUGGo4cTUF8WH3R4Vhspwy03yPVR8SgyjytnTZXbz8ErxKTGcSb2d6Xmn+JghhYl8Xr2wFjavXPGhQWMiH3cuzNUiq1d8Ogz5qNSw18OsWvGh0RCFmJ8HSfEpfBIZnrnwR/Fh9qyaU/BpWf54YxSRk5uD+/sPXVc/9FDxs389vANgLPtzjEtEUDZrHx6Obo9/c6tDTxX/8O94PL9zB+41YfUTiRGxCR6OycKYI9cusIeKz5T+Jos38nc+HOMSkQp/7ZgLYp5hyHio+MW/rNV+O6C54oYaEwpf8/aCH3eGHio+U/w0WSi24uMxwkIF5J8svFu54jPFD/nJH22s9HgMXro/ij9etLV6xWcSoRPyJ09O4js1daUM1S878aNjyykeuj4pfkA/PTH9Atze3a+Y4eDdAzg2l+HtfDJ8UnwGvv5mLYX7A1RWux9Ykrd/I5EmvvMe9N0zb+8UP8C9Of1+jL0jfjdY8QKwqDL+iqXw5A4MKrj35IviM9zoYAy+Hudf7YD2inPwsJQEd8e3/4D7alI+K/nUx2e58oFcGZyC76CnrXpjQkqr3H+5blSTmor6+C4ELVf0RPEDXLqnKslcu1mRV76fNBzRkplMUpOikZkpUkd63il+AHfyoxFVURQfTm3jU4IoRqI8PqfGfTTRQ0BjLPJhno/6suM5HObJSdwx2Vqq4IPiw2yDQic/IgO/5vEDdPYj2PuAnVqoRdIrxQ/g/Qj+b0HEy75c/dBDxYelcxoM8dI9nxQftvo0GG66d4C9VHymCPxnyEvjZ3e8eKb4TIIKw4b79kEvFR8x9H/XDC/Zg/o+KD6VPSXmfnzT4SaeN2N4qviYoe9bgaPScGvW3xwM7xSfobHZ2Vqb6I/iY4a+t9KYZq8v9UHxA1QYmgsV/FF8OgyTz+yZ8FLxKTGsuRK0XNEjxafBMJJ77T5r4ani02AoVnZthj4oPhWG7RFnOxzjYHiq+IEEBT2cMvRD8WnkNGKTLKD1SfGpMJwuEV694iOGqv9+uOleh9728YtA9b1/+Nwyb2/7+KVPvyBDxkPFh/X9X5Chp6P62QJVhn6M6lNY2Oar4nNpCgtMpwPCPig+lS2WeB/wwhZqkfRK8RlYo3CeWSxXW0jOa8VHgp/0/0w6ax+wPyv3tvoUDhma7gNeAC/X6mcpyOHcPuBF8ErxYXe80mVCzoiq9ojwInoe7s4bNd0f8bISTBayr17xGRbkqOyStfeQrl7xW30qp0FLzRufdudB40KhccyumAMLW6hF0iPFh+UehUCD12LYwXTFih/QQYbGtqeNlLKf9WXlHizRcUMUasYdX1buwU6DihuiUNN+7lw5bxRfr1WpPP4B9S5k4LbF0ivFh6Whf0+vnEdUuTCf27haxefSA0qNdCMsNXfxwXMrVnwUSSmkbCaEZL809+CiVSg+kns6kRQjqjTSk5GMFSk+qsIqFbk3IVVcesHeKD40zn191PEjRLRCd9GQojeKz+ihJq04g8GrFbuj/9QVieIztnb/pMF1t2lJhQlUiVcLJdF8aDcbeIEBE6Cq0PPCDbMS3Xv6LwO8bPg/bziPmDYOLUjdAmY1vMTgsiBHMZAShEV5P20+Moi1NXpiMMFp2PkZA7ZQG6XxdJI58EoFZCe5m3m2rm0sSASWNZgEGGsCnZx7BuGY1gSHjvNsrFmjP2tA/aaw+j1Ay1AU5APnPkbAro6fMiD7dj9J2wlNIFfsAYddbKxVFz9rvB3mKAzlOyKMn7hVn44ssrbxAsDE7sP7e2Wlm5qXR0zU7v8AxpNnUgXsyPrjBlcCd/FXv9U0H7aqPY+IkDt9yJ/8VXafqPmRCoQGOCJbYk9/BYoR4QAXJ55/APMHIP+00HOJ0acd89SGu1OValZKCEqF7ydmcW6B+aSxlyk+1A3UQu0t/7/dS5Sztoh0/25yikT+H2Do8EWKD2F29++dmWcLfW/SjTYxofEuPy1OfOfvU0O32+qPCz1k6qP+8N2JzRA1/mOg0KxEHh+TEX81+7Cjnf+CbpGzRm9+QOgZ7H8G6I8rlQawKjGP/fvrJqUnyRKkpOvb+KuTu+lnfvvu4/Y+uKzrcLqfZhl9h5BtpcHZQSWpKMmxRTGPQlj89l6k2McXNIA+5Yd/bEfceXc6ruRy7UEfpOsJt6c2zgJCTj/s1ECjmpOVCB9V5QGwzm1A33co7FqbYVj5gD5k+zyX+BEY4H3sopbMNRvnYNQ9TFgPp3TWd+shliVjBD41NvGt+OnUYV6VG+/z5tki3+LHXySKHSghCeJ5cGtV4R1oJpVIlOejEVVLZqq9whC8SWdLCZbhuOlDH6H5AEgOBnVELn0DhhfjaiUpq4K1Fx1RTG4/mI8tC8UfBhSWYUwQ074cH70z1fDVw2lbFqNWGQnJXKV6MLjoA3BT7hjZw1Jpq4jRKh3WjW66vAtA/2JwUK3kkpoqpPiwHVHCUSXz5YG87R9fQzmaPShebYLvpArjJ9/vM1psKl2IZEqQNDmZy2Wqm71B4WL/7LxPMDw/279oDHqb7UwmmZQ1SUhFp/QIolrmGolGfOf9doXKM0gnELSD63/wI9WQC+a02Fwpw2HMMiZKioaIJpO5TKZCkMHEMDVNkcQYYfe4lsIpLVcAX7+CRk6LUO0E86LcBg+3397XNpOK04F4iCXyy2gsEhFESVIJJEkSIpFYLIpc9gk3+76Ukqz2em3nd/UT4YhWaVzf9zKy6HZkRRiDn4K8dn9jXlRQLQu+HIThXpKYkszkZDXmdVHC4SgCfYI48EUEwXN+5lv/AvRM/DolWWONNdZYY4011lhjjTXWWGONNdZY49fF/wA0NDI+95YgVAAAAABJRU5ErkJggg==;" vertex="1" parent="aCxlsfGfSEMQHci3j_Ye-37">
          <mxGeometry x="7.5" y="30" width="70" height="70" as="geometry" />
        </mxCell>
        <mxCell id="aCxlsfGfSEMQHci3j_Ye-41" value="" style="shape=image;verticalLabelPosition=bottom;labelBackgroundColor=default;verticalAlign=top;aspect=fixed;imageAspect=0;image=data:image/png,iVBORw0KGgoAAAANSUhEUgAAAOEAAADhCAMAAAAJbSJIAAABI1BMVEX///8A5f/VAPlUbnr1AFcptvZBYG5HZHHS2NtMaHWksbcA4//1AFUAsfXSAPn1AEz1AE71AE30AEj6///y+v71AFvr/f///P99zvk96f+/9//+9f/yvP3a+//8xtZk7P/+5+6p9P/+8PXV+v/sofyE8P/65f7n9v5lxvjD6Pzkdvv43P798f/fVPqr3/vql/zl6er2M2/5i6r3WIb2KWqX8v/90N33Rnv4ZI7S4eLaLvpGcXviJGL21f7nhPv9q7+R1vo+vPfurP393OZgeIPtp/z6nrPrF5zT7v3zw/3eTvr7t8v5e576iqr7vs/5fZ/QssFUXmlMmqpwj5blfvuPoaniZPvHz9L8nq3pkPwj1vvaKvqIh/hfzfip5fvgv/w6ssV9+eAMAAAM0UlEQVR4nO2daUPiyBaGAVHbkQQEFHFF3GixRW23YcYFlx63tmfpscdxlvv/f8VNZYFKUnWq6gQSvLfej5KGPF0nqTenTp2kUlpaWlpaWlpaWlpaWlpaWlpaWlpaQ6LvONpN+sT6prEJpsbeJX1ifdPYCFPjmvDtSBO+fWnCty9NyNbDXi2e0+uDUIS1QqHwENcZClUqgR+jCI9z2VzxsdLX80RrsboMfo4h3M9nLU3tXfX3VHFaSacnV6ADEIRLxRwhtIbxU79PV1kzy5NpS4vAIeqE9awDSBBP6v0/aRXNpR1VgUtRnfBjIdtVYXppAOctrcO0p3X+QcqEn/JZSrn850GcupRmql3A9OQc9zBVwqNCLutHPK4N5PyFmkv7NMM7TpGwcuAHJIy5RKbGdT9guso7UJHwcSoImE1kalyspoM65ByqRvhQDAOSG85BzFPjSojP0ir7WCXCWi4Uo94wxjk1upNgSOwpQ4nwuMAGtKfG2iChaK0y8Syx3ZsK4X6eB2ipGNe0sc4eQCKme1MgXGJfhO4g7sVzt2HcYiix3Js8YX2acxHagIWY7jVz/BFMs6cMecIT7kVIYvR88HCOgvOgXwz3Jk14Dl2EhZM44ByBYcpwb7KEV3koRg9inPJnwEEMuzdZwrBboy/Co5jobK2Al2JoypAkZLm1rvL7ccE5WgYHMeje5AgfwIvwOD44WyX4Ugy4NynCWhaK0enYH/QX4UvR796kCPlujTwgPsVKZ+tQ4VKUIfwMxejUl3jhHMGXos+9SRAewW4tbjhbgimDdm9iQoFbq8VOZ2sOJKTdm5hwSNxaUNLuTUh4DsVonG4tKHDKSPfcm4jwqgi6tQQzwrLuTUDIyK1RgPlY3VpQKyBhd8oQED6CF2HMbi0oOfcGE3Jya+5FGLdbC6oEx6nr3kBCgVurJUhnC3Zv7nINSAi5tWwSbi0oGfcGEYK5tanHZOEcgZeis3IKEC7Bj/VJw9mSmDL4hHVwosgNxRK3TO6NTwi6tbyMW2uuPQ8aUMK98Qi/j+rWNtbaGdNsDh5R5N44hBM/F8CJAs6tVTZe2qaZyWTMtcETCh74ZziEP/wIAGaLoFs7fbFGL+PoPtrZlzclDloBCZd/QRBCbu30rIdHtBGJcMfo7IghYff26wQzSH8DDGnhI+eXKqdffXTRw7QxOmoYnQsRJEhY/Z2BOHFdOucmSDlubf4uhEf0IQpg2RglIpC30HHcFUWbMBVGnLguW9M9N0YZbm3+7vmVgUe0HYFwxyEUQ0LuzZoTfwsh7pKqEg5g2K1VFp5Zo+eG6WUEwsYoLWP04pZX+wRciiShEUC8JrtJ6pzZIphbm78E8CLeTUvGaEBkJMusQwH3ZptTP6KzXYadYfO7tQ0RHhnEeTTh+xChDTn7njGSfPdmZ2wq1z3EcXc/0B6TkMqtbVx+EOJFC9MGA9AJVwYkz71NurnTLuKEl4Ji2tKuW9u4cUyLhNB30zIH0IMMhCvHvU163+YidgFTnxiErlvbWLuXxSPC3k2ZQUpDNnyQPPfmfb57bYdoLxHMWFDLTVlurdm6lwlOKkwXkISzIKALudODZK+c9tLfuxbg2Lfe9zNWK4p/bLy01fCIkI9QUJBSkEYPkjllUAtRuxPjFGCqHiTM5X/KqARnT7gwFQSpH9L2dczcG70k/O6b7xeoGrZcrpAvTh+rD58tZJiKg9Qfrpts9wZUuTvThQv35fyq3sIBZjJbKEIFQAfSegw5DAEG17xpnRQK+Xx++uTTg7M4MY/ks4SpRZEOUgrS6Pw5GZw0mBbI0f7e48MRtfJyhh1CXJiqBCk9kreLc+vL1XT3vgpvqKG1gR9CVJiiAC01yD8uzayurNuY3OLosLbQQ5jBhOmtepC6o0g9ZM3MHfJqo8Nq4mM083qmPl/ggpSoo/xbjj5g8dovp4ifK3XQhMZ7FOApZghNs91CJkzRQYoexHsE3usaPtF2YeARjR3EDy4oDqGZub+Jlke8veigITvAHMhRpa2G9+EyGp6jzR0kJGIQL+WH0Mw830RJr/UHUnUQKyqjh0/L8CAbo6qQxoXij8hZbmv0FvqN50gd0pBZ76C03RJn1DJbC/0LzrDKOw2lcJ1V/YH5NYjRwrsbzOjRKr1XGEkDXAVg64aTtid4/cdhq/x+tiMJ2cB8/2U7yGiZlq8YTxZBFqTMSBoN9TkxRRYoaEbLtJydJtF1oHQrgjQaiCB1decymmamFfPo+QRZnih8RKeWRcU76j6KBzkbjY/o37+Mv/9RnHAGozCkMRv9xMoX5NHNGBWvPceiTQrSGO0HX+8iF649xyXLvJKT6vTj/3xzNhATBFI+mTU4bf7zt/HXv5G/hnmTHg7I5hq5x99Hsx63vPVKZ1m2T6eKUbP16q6nmG3sOhfhE8yxBnPteeCqnL74lmrN9iXKhJQFfN6dLLgsO2idnoVXos32DYaRH6EByEZ8kKRCifkwYGYQhVjyyT0COfhw5RRg9Rhbyk9zSot5Br323H9t321JPJG/KCbDyopZhNGGRE0hRmABlo+xpfjNF8rZoAFAzi9IlfA4Ur3fyNUNBCClqkNltS1RgEUNoXqh0g4uOdsnSJn6Mp/a6lNGGbsaFN2hb9wolvAgl51xg+hCXuDx1qTryyjhKiLxS3qo5B5Rs6VUX9YbQlyGBVEd4amDMQHNFqIAyxG2WlDSuzGknIJObb+8YvGsIZTPIh0ezlFb2/tSPSAp6dUgFqBC7Uc1nZ5MV9cPV2fsMEMPojJgKrUVAVHesHVL4SzM5fW5xVvldS5H6kGqvuxMDeFZ71sqRw9fjoENMOVQldifmBVLXHUEfgid54r606eTg3w+X5gCtqGthmtSD93MlpIwgOgwNVv1q/PPH6eL+amCXV8Jte5YYVQzrqqvWGKCFB2mZubYgivQtaNZ3/d+o9u2hIsZvVK4TYUVS2QJzzYS8KfQ5t4i3fnh2/gE9XYSsKxYflkW+Tj8rE7Xfmn+wajepjYTfhsbGaEQmQX+VG/pklS44oJUNUzNzP2LNdEfMbZn53stZN+Nd3cF2WIBpv39bcQrlsggVQpTUl9mT4IV1lafQrf16LuJ7tY1R5ydNoGaTREkOmcjWS1o4XXry+B9MLvdfTPXzh8WeXuJwt0JAUjUirotmUIlf30Ze3u2N13sjlMbEO0nZG6nImZvaVJFwKBEB2kqNS/OqD376suu2D1yc9MOoH+XLPnTCo+Q01u6xFqWNSJkT8GKSFKAFSjhYe9Gy+YKZLpwdgX5EYHN/NzXEYQg8UEKhSkpwAplYh55+15JX0ffCHqIwF7+SaB+2oLsXZSoYk9P27wSHmZ92RO3R0J+qbt1jUb8He5WAOzUIGvP3kRpRMp+M+6mZubrHbO+rMbvujZ1XgoDEkS4H4Pg5FxfFyVIU6m14Ob3zNYdL034Edhf/xje62wj/gckhN8M4kB2IgWpf5MHKcACFnn3gT4euR9/YAGOjPyi0J2QBxlxiea+h3cG5s/g1oc8wjGF7oQDkh2mpvn60hT0GoF75P7MDFKLUKE74YDUNM3Mq0QBlqD14ffjPEL13tL91rNUfZmoUfU7PqFyb+lExHFrbowe1EFC1d7SiQhufbiUAglVe0snIa5bI7IbVYOEgpZo8rvfBqYnCDBntz6ECeHe0nFMGbAAt0a2MdfIMTAhK2tKK+miNrD1YdFJ0QgI2UnFYbkUIbdmGVLnIBGhSm/puHUE98h1nZCQcHinDNitFb1mOkLC5N0bT7Bb62URhYTJuze2ZFsfShBK95aOVTW49WFvuUKGUNSdMH68FDe35sYo9eJCGcJhdG9fQLdGv39KinD43NsT1CPX36hajlCut3R8gt9okK3Rx8oRwt0JwVeBDkQybs2TJOFwuTfQrQVbH8oSyvSWjkvBt4X6YzTYqFqacHjcm+CNBsFG1dKEiPe6DUhwo+rQ6yblCYfFvcFuLdwjV4FwOHJv0m7Nkwoh6N6q8aQ0Kseybs2TCmFqhT+CcQUpOFEwXwKnRMifMmJ7wKif8B/s2a8VUSNku7fJ5TgfL855iG5uLSg1QqZ7i3e6T6WuDtjduIvsN2grEjLcW0y3GEqVR9Yw8kpJVQlDl+J6EjnTh2xo1ue+LVSZMODeEkon1o4DD4j8t4UqE/rcWzW5ZOK+HzHs1jypE1LuLbE8G9HSARWp3DcaoAi77i3hNVJqasxl+S+BwxAuxj8JstWdGlluzROG0M69Jbpi4elqz54awVf2oghTy/FPgmzZU2MOfAkcjrAUc3sBQA+5Avy2UBzhMKm+x3Zrnt4+oUia8O1LE759acK3r/8DwrEJpv53CHe/4yjpE9PS0tLS0tLS0tLS0tLS0tLS0tLS8vRf+8CpCTXIO04AAAAASUVORK5CYII=;" vertex="1" parent="aCxlsfGfSEMQHci3j_Ye-37">
          <mxGeometry x="87.5" y="30" width="75" height="75" as="geometry" />
        </mxCell>
        <mxCell id="aCxlsfGfSEMQHci3j_Ye-42" value="" style="shape=image;verticalLabelPosition=bottom;labelBackgroundColor=default;verticalAlign=top;aspect=fixed;imageAspect=0;image=data:image/png,iVBORw0KGgoAAAANSUhEUgAAAN0AAADkCAMAAAArb9FNAAAAwFBMVEX///8zZ5EAAAAuZI8hXosqYo4kX4wdXIorY44XWon39/fx8fH7+/vt7e3m5ubb29vh4eGamppsbGzV1dXDw8OioqLx9PfH096wsLAjIyORkZFMTEx8fHzt8fXk6u9zc3NBQUHJycmHh4dXV1eSkpLU3eYXFxc6OjozMzO5ublkZGRbW1uasMSQqL5VfqG2xdRliagoKCh5l7Kpu8xbgaN1lLA+b5e/zNkPDw+itccATIFJdZqwv86FoLlXf6KUqr+B2pDlAAAaYElEQVR4nNVdeUPiPBMHe1EsyH3IjbKKyCEoyKOs3/9bvZTM5GjTNin6yv7+WhdaMpl7MkkymYvD9c2odT+udB5f/ry/X129/2k/3A3G5Wm1+NsjOw/X1Vb34SoGL916Nf/bo5QjX7yptcrl+yPK9XqrdlMqciMttbrtOMIYhuWq991jK1Rb9fHTUVza7T/tl5fH4ax7X5/eFJSmslArz15kI20PB+VpqTAd/FGjDFGZfhsLr2v3nch5fX94Kk+LMb+VH3Uf9YauSODoG0ir3g4Vfuq9M54WZI/XKj9BGUH7/vos0kpjRV044aXSEs1aYawpcDDqTrfcqlVLxWLBR7FUGh214k42lEEpNW3TToqRdWuo8iV9tr1XyqNSpJTnS9PbkEl9SkdfK9W8+7hrHYW0IKHtcdYd35aPZvN23J0FlfHhdqTi0LzqfYDCilQlYjF9Dw5tNq7Xqmgj89el6mha7j5JLeHVVacr/v3SbVXDSlIa1cHiMI6roNASbcGtHm0l8enO7Shaf4uj+iDWBR/Nd6z2V+tVvdH5KJR5NXzXsZ9lcWwqrqVar8gN0KymP3Q1jO74UaryvsBxYtjS8JrFViWoq2N9nTih0Z80l5+bvY/Ncjfp92Tfunni2KcmACNu3vVF5qbMGdpb/YCi0d/t14ttznEc0waYjuNa28V60wzReDNjv1ZWeH2LfruTQh18FFpEZAYSvnn5xgn5CEFqHP5zbcvISmBYtmN+HHYN8YkRs2uzROm8p5yehj7L95vLzfP8cJjPn/fLXbMfNcbMdWv4Epgbb7I8rBZbw3Zc17Sz28Vqvd9Nwi/oHeycjDgk0TFf9yILmZV4SXApt1RLRaFq7Oar7VFYjtJi+SDi4mYXb8+7fvwrfUyeX03HtCyDcsUwfF645uKwDD7fWztS5tFHbfd1yU8LZ+FjxY1yriWM7evDdSwrSlxcRzJEDv151rWjxmtYprs9NAOTsXDiyDs+5dhznoGUKVcxFprqHBfdNPZbV64I4hDN1X4ie2fz1ZXOi/C446xFApdm0kOWu+boY6YwrFCBr7SZVPYO0dMe/Dnbcd6WAas2+XDVHrdc65l/1ntzkx85MAtz/SAVO4Zr1E0q097cSZpCETnT+eB0vvGmSNsJtvvGy3cy+44TumHff4rn3kOQc82srUXbCc4rnZylFWP9pKN1Vhx9vYWZ+IS5YA/Q0FYWlqFhpV7qoDPxdICv9IXrRNkKI+fw2nRIMC5Z374w9lGbGE6KSgGb2nhNnjnJj30g5xuLFIzP+tK2Z4PaKSi9u6LCRj1fKGqHAKqOYrHV0zgcGwpKP6splQzOBzO+k2zyMKwtlU70DMMAcVPy33eUuFSDc9Gu95OcSBwMZ07H1ftIJs+wqTtB3RuI1P0RlM77SEWc+YXEqbqRqBd9UHZ4CwUhcpf4dbScguGsi3L5mkosjQ94vJE9jziffXS8mVcFBXapbUG/x0eSpM7wCH99Jdsq6U/ghKfjfOBlh3TkodceM+JaQpA2SWHKjzCf4W3rdNYy+DrmW/7qCGc1ZDcfBUuzTSVXxhYeX6abnBCsDxpoKekemhawLDSZrQqs26STSwfe3v8WzvnIUVOfV5lwB76dh4ASqRuQEIz84aUbXW6FWvINSgcwssx9JpNnbPMC86oCsWAwn9NR54ALXqbjfMSAKXkThcjJehNEEaqcNV4NvXTGHN+cT/V0JBh5KrPmwgwTD/BA/qjwYUrKuUehn3+b1hEYWzQt82Tu4RR3OXZ55N+Q9f1NxTsLtK6XJvSORQ5DBBXDaeV5YaxyYkoEs5/OnKNMHFIFObHAiVOZOfAKJc6QlHkp3aeSLIzBet/k6gTQmLqZ+HbMnrhwhdTL7oH9qQTThDho/v2sO8LdAXnrpNfnQPFIBXfG1I54h146m2ITefd+gnVZZrIySVNvLMj37qg/v+HVbpeKOmtNXvr57TaFgCYfibK5JUWdMaEpgxH0yzlWAYOwj3MTnyjYmDC8JYzPIP7jllJH6Oyeo3a5zDn2VgU4f40E6mxSc4ICi4cFFRKGNdI5u8NP2pQTjCzUERNCfIdQV6faRv4xOmP2TZjYVONWBJXNeOl3BeoKaDJLZxgVl8xryqRX9UcgXmjGDjFIXYk3mal8OQYTXz8nmFnObr7GMc8JUEfisD9nmEws5v+YxSRwPjPJIiJalTxEnFAvWqUZIPjaH4nCeBhgWFYx6XGOeIR7tJnE3XXOmH6TPLv8IVdOYX8pMI8ETdSbEyZC7Xab4kdR7RKDwLNhNpI0DytXFaTuloXT6RJrjMvTVdK0fgmSheh4DONM4sPbyERSHkvlzKGgkjL+1gK4nuiJRDkibU9DkbpeGuEye2e4Sj3YUA+OdFwYNV2hug24QCxd3QC83TcXVKSAgLYRJZrgnKDafosKSKjrp6AOhSGVM9GFCXnsKkLIHPI5JHX186kDafF+3qgcYcDaQpQawDoNNG/UzqfOJKsTjZ/zdpZ16ms64T8y/KgiAPgMCMRuROrS6B2YTMHFGjnSaOU45jlrsD4sx1jNl81+r9Fo9PqTZj/O5WEsOqaxc5e3mSksA0R2NFLxG4c+3p53zf4RzeVhodzOIxmts51LGuUyUcsBaANIHew9E/B3aRY4PP7nLHd72In9Rv39NqXUmttlVBOhPA+yIFa7otHlGI2nT53+CDD28eMww8weZL1i3l7eQpfwZmcveRdgIqUOTGbhisZfJBKDsop+nIlW7PUokR+7qKnu6TevGJa0qS6WOtFk+ksHJIqekYf0cwSsj27dVdxoMitN8gxD2gmNkEsm5EiQ3fkV2paQ32lLkEUi23w8bUf81dNph2+Ia0yan5sjls1JL4Y6A4xKhZpMYGPq3NyOUI7epLlc8p3BnhZ1tLh+JOSQPfoWk7R/u/+RWZS6c1swKqcKLUQtpA1no60e9meYssl+Zfq+zvd5r3SYyWscDHSZOrPMulbO8vuVgWzCU2mqDLW5Ao2hacRZimZ4LMxlRsTkYDichzNc2mOoIfa4TO2tXMN2F4fn/XxFhuY2otkAn9VolEn5SPod9OuZzo4nrbHZYr9qzg+ejrHKMZAC8uR2TgY0xJm/tmHtISPvnz6yBPcqPiVGKjenPx55d65LHC2Bn54+WCZyzVzt+vnGZLk2bAOWLtQtMgqEv5jMrMs6xyiQGQhM7qBbkVRYBkxKU7gEh9pKb26xCbVol17+yzThD2WthoT4GPay95CM3IjJt0CMPBapZNA7gEt4043FsESc2Qltxi5n0D9NiwiXagqCDDrOBhZKfGH0n0b+yPItUDvw5bDaCkpI/tAuRgN1XqC/m1dHL2t+Ro9JAowQ/ESArh+Q5RF0QBL7gHMCq1vQHF06y2iC3gVrjLQu7guYhQZeUTJQHE/fNv/689eHBn74OZn1wxBaUDuU05RGEwxAPzgrNmtA9D2Bh6KmAmBQg3zbcO2PrAvzAhIvYwJYgLygdriEfg9SpAnw5uG813kjFHl+hAlxleIqUeidTKDd6GlyBUWjHX7EaD7BRGsaTZhnSa3Qsp4n/cmX7X8CaqhYUYycMZpvSRwCKuuAhdAn1Hmzort+CkUjqaO0HQd8O+qEmlkRJZMHdQjhUaKPhP2pNMAVeo12mnk0WAAvPjOMGVX0OzNh6mIcgkP8AYTNT0gcRp3p1paxmSOJK+Rbat2R0e/EYnR4kOgYIbfjtjq1OT3UbWBEcU8IcqxAbSkWxl/yzrADAfGTLBXiEumQT3lOIDtjKyA8euRhGSqBOnD6ioE0BKbh0MKUe9cstcpFQtyQEXeWWUGNSmh0wUlX02pY/Q7PBfi0sLvD6KEuhGEnjASzohetYLKSQB2txyu9FBxIuPXGiXLmGKF1+OyHQDArmsvfitQpqicAjWbopZGZudnnKWlneJAUD7qk9ap+aAESWnLRpKm5BPx2yMRCO0qo2w4fgF0j3D6SDBaRoOqnlwThe2O7SHyQrykurtsRihdFHSYhnUCgwpNM/tCrHClKZjZHzKDiGiYmUEGPFyWZ4HDAYl4JxKGDL8knLBaKNhO5oTh12JweNOCOvN6HGVZdJpiYNYCD16JO0d+h2is3tXjSmY7wCMjqR5lgorxCbSVRhXioGkOw5ar+JqKfFXPl4Fs8XgTfA8RBtg79tVpbZVTjTDfKD0e8FiZtI/IarEfAa6EDuQ278hOEvTJa1QeI2hPddGSUEQGbhPyBLEgeRWOJCmxK6KAOKEiT6oNWZ3pcfsfD0Qo0WbomuhCaAfH/iU4JWPQQJA53i8Iqnk5RE2LzxKxblzoMHMWAGW2YYBpwi+wslPwgujzZOm2kUVWjCOrUpR7LwAIhSLPAUXCluOFVctrQNK3iYQnu26lDcyU+YcH8c+qINgXy1kqYOAw/ieLldaiDUSf5MfQI6oUNKC2LegL/yYdiaFPe+VwggEde8TR2Jah6aVvTm7OkRngkLAKoipDGvWRkGPCKp+PxyGQmVugtxe9xMGBo/JbXsCKg3webUs/IAIpH6hEaK23RBcYAVL/HUQKB/yc3GnDnrMkPB4ABtPxMPbA45HgET3kMrKEj4Xta+Z04cH4XR8idY+4zjrYpPh75UFN5EKqBGH5Pa30Qg2OOeejO6fig5RwWQyJP3OrySqmc48FcJjZUg9PXW9uVMI+2xxjC72OGKolTCGp8jpfovgKjTgxVIIjWrAVjFML2UWM6iYUOqEDDSk/0cVueYHNUe0lhQSNxVRVMpmYdn64CUoEO6DkKai0i92EgOR7sOle1bYrUoVHRXYNB5lH/FrBO2JHUich9GOjeGeF1itQl6Cmqh+7mRap5aJOROlLaQlsVPnQkhCofyajuTEBrkcAT3LOg3aiF52mhBxZ5h6wDT96NJk7YpK3sE3CBK/5byAL9ViYsKuCGV0HvMIGHikM4beVBqppQx1XcfqxWVsEwPsVWIZRp0GyLL8Eh6+CkplkccRiMafkEacIVAuZq2rRlqbWF4zHQSJ7+DTMbPOdNjmvBJ6gaACI5n3FmBZUljWBSeohq85EYpj7QjtnJxIOUH4bkD8VoHqQj1k2jXU/aLC4HErH3ZRM2k/hFMTSYyLqkI6PLvF1VDCuwuhPr/gl/8+la22mvpv8TQKpvQqGZDLUuMghDwCxA2UUt4M1F1MQ5YMvrJmXjPrai+fEYVB6OcTBuxlNlHS6gg+1RXNCATusYVsNKaurthzQe2xo4l0cjBgVP9HXDROK4wx8yyo1BuJU+0kHKyz86oJmQyfTAhLpEVZl1+FWItPVEM3IyULD0++URNB6zoWjUdw3I9THCVGAdnsQIrSyKIS8mIREbpTG6OOeICzS6z2BgNjayc6TOOnqYUwI3RNBoQv51HMc5Jx6h5uVBDBYWNqXCmtZdRgVsW54PxTKBA6Hgs1SxbPJh5GZOJbhNfpR9F6UdD7jmexxiIIimokNHi59ZSGQTQ410p0EhsPeA4OCCofKgQhtVKwoCRJMkearNHbBWn8kbYWbjLJ+5cZRnXsPGbfV4TK3qBV3c9qeM8slpNJrom8EH0NydezoJ34n8hSeBYg0zsE4egzavpap1cRe3y0yCG0GxXH72MQkm3W/UM5FSPKNW/Y4JcOikJq28TmnSkyADBzGD0ObPPwPCxp84oLCjN5AX16WAPLesN+X06MpMfsVbTsx9vuHYSbozoY8bMMAbCOsi+evrwnXMFRfkGdh8obygQA/bO8ZLOWYesQ7+HVvtzbk4UDzYGxy5d10rP8F23rt6VP2I23iY0TB1NiOvMTdxExdI7PeczCg6PVhxvLrL34ym5UEncDtTV66M/O41nayFI+90Y4R/dwpaum86I87kN4veXSVA7uHveEOUV3fCriA5/c36w/kP/uubzoCg0XSGVp/jIK2zTAVLpBwe8rwLoOE6zplHmxM49De8eMIIpMpHPgK7orpewt2LEEJ/2dw9r9xzjygx3MUGzeFTJEltpoDS2HpMPgNbpJaW5T4SbxrqfcVd9JMMh98WPZJcqDgctEZ54UOZbEKAA6G0UgzFzs6txdwA1VM5cD0K5kZ8WbHVvXs4Muq9/dB5GrdqRX56YbuMNESDfBdiU4XCppHDQMLP7oetyNWKdWrjaTZl7/PyeU8qNCSgbMs+AnsEiw4KTYd0eygWqGb1G7m/SVfSZB0CqgCvLf0MFBMGmJjEUjeLHpaowawSvtUs5RE6Oc4gK8XMrRjqoAMXBrdL0DyaIeSDtzlSFZxQP6yzp577CZT8xufKfVOgrx5DHXoT+DOeeQ6m5pngPZm4it3fui696EercxdA958/u/4Gdvsr6oSLCRq3WQx16BTAo8fOt7nGh4L3p6LFOl1SklM7/1IOPG7hCwZiu697SsgJjcluv97+hwcXQKbzmJECFSh5vlmIErwBFX0pqJphg3FLYVfc0CmP/jV69uLtMJ8f1qtF1vGjIZdd1TKM8QgZ6jBA86JrkewU9XGAOHqbFx6vjpVB7S3ttK4W7KIxcqe7+Eg9wHKphtCxRJXKsGQBQzxEuGEji/JRDxD3gD6Pu6REPsZkKCyBGu4r27+PmV/0il5X4G1U4xi9umkq0vaHVgM+GduhTK6veIasX1gYhrvgnD29jiu6yonMg4BF7hWooxsJpFXYBYJ8HAfU6R9nGL84f1TBFR/IDIJWLYZ5uD1WFmTQO3iKlLL2U52fsR5fI4MN4WdQFxqDZTvW3w1/SFCRhtfDGOJoEzXwwQtfe2LicQB5UsF+GU8DZdMGH5k4YFX0T4BF6j6zR8toWblcjlzraW1X+6Z4QSq7z/VP/N3noJt/wLCECkisUPRw0rTwpXNC+Y8ubOiXISzqUvu7/df6bfW2nj9vmuH7e4ucy026JBguHsMOnsAlRqwM4GeSsua6DX+xKT2KPIXNtOaSt0swZrS1E2+tx9IFro3txYMIUSTGctO72wqFTYtOdIqToTaS9wfh8VdfdxTulMb0HueBI88yUJVbsoBnMreEG2lz3AE++qtB4tlJUhRvOdrUFhbQsFDW7PAaT/MDWeGnq0I27vU/37KBq0bNBaci+rcpOZNMLIp1sQ6heNk5WiDaPNdbuUejZdJb/IgvoN9vNJ9fs44ZCLUM7rK3VNTxxwgF4BWn4xeBtOAdyjHA+7VZGtp/flt/Uk7kXzjWbl4tSWHPcD/Eqdc/rB4OVSkPy7Xi9enmai9/XbiZ1rud0I3xLxqXxefxIfk6i3eSCKxeTFaOHRi5YbkfQaXRpw5acCAIab88vrSDeXL8OKOA7SDSq9G9oWh1Mv3NKmv6Dtcy/OPpHHs75/gGHkj7Bgxc/ZlFUMRwr3tbPI39B6GPim3ZR/3m5mu9Wq3eDnvxKvliyvNpaKjyEEET5ZsubRnORT4GQm4W9ERd3Cxgmvb0Hdq/G0vaQNFQBsFy7gEX3VQFI5wo7nnfd6akDpx5PkgQxeM4JWkieVd3LT+azN/Ug1JyF992QOQ7JXWwS+vmSoJ2pTxKIZA8urL3hkQjHEUD8qi7aakjlokEhk9Ps7tOZ/ZU6Zano8if1EKwrMCBE9ChJE3I5GuM9WmpI8aJ6HlidJwCoyBRiJq41tSelaelAixsXpemt0IVMCV1kPWOuXd8M7zBlQRP/kyGP3l/eXh4ePkT+v+U1EG16TSNf36EuqNShxaqcS2rFSIjAumow0L0SQwi6q/fgNKYj38GLDMoJEcRHHW6kRj20Z2C5eGPUXfETWs86wxn43rAs1eV6CPf1c0RcAMjkZefpC4axXJYzxDDFlkdij5QNw7QC02K//G7YX6UwNYglJBcvVf8lVjvRHo+FXXg7ojZVu3E/Bl41en9oHI3fHjoPFXGrRG6pxdGnW7lAfqViO0Kx/KXgNPSXrp72mz+aPnYLXa/hlNIk+60dOHyKfVG0/8nTs6KRNqx273CwCUS/gLJS8MpFCBuRLPSju6OGKzILde/ihN1xP9rrpJA77FwNtGlYcao01y/g1ItLDPF74/8LZxCYJJB61LHZ3dX35PRfTcGTKz0TtLDI/ogxVRYH/gFdDnqNPtxyAvY3cIXiPu0vMOOABKmS9vafh8nwSKFQb2tatgh9vDLQXQsWswV6x0dC6eEkzD8QgMx0vFBjo7Vu+IddjSAQ5DV+y8ANS5I1KIOHEL1kp05yc4gfdFq8hPyH9VdhP9vlLjUU68BlSSF7Dr2S8SpKgJdfzpHyKBDoJfvXiROCzhwWIHO1mxc3SKNrU/RP/C78C06HKqks3sZT0AnrIs5t+h3MWSCpVOuNYUM4YyFrJ/FEysb6ZQehIKY8u7d/zu6zKDrpK854QLX3yQgFvVUSQKazO4Fl/t81FgYrRFoYncfabhRWZ7/HZRYoKkRikGV3btwtSO7+iBYUT9mEnqoqpec3J3gJ2hD8k/lrfWodiQOu8xKLUGXxYm6p3NCpfYy62EEU+YSlGsPIJhk6e6nFpW/BUXO6oU7yKXAzuvpxQsm2dQHYbCiaOJ2ByKYl1nKRHRZLCa5HU2CHLQDkFXXX1pTVkWVE02lNAFbaseXXHSg4FK8ngLzcKdK/uKd3Qljzqx/JS5zOWv+sQuOwgBVrvqQfI8JJOWQ2l086+CIBWBefEXacJ/xoeE/oXUZWOkYwh/LGPJM1gZ/+y8YzBOKggZ9RpBnOFm2M2Z68dkBA2mkwx6WphX2C4bt/F2yqiVUHC6zFyAIMtgh/tlYu/zuDMNy7L97ft8ILLhe6MpPCCSmYis5/fnWdGwfjmss5jtxRx0UoNsXWoEOARY7+KWcfvNzv99/NvuNwHevsW8waZ/g5QAacW+Tv0l7sS87ehaAmwqSevWm7X+QOLax6E9Mpn3NtkG2/x2xPIFK3JOcK4UW1wd/scsikWB7N+5qgW0g16N74RSTiw+dJRhz4++UpzfFQqFQvKnVB8FNkP+YVAJitqZwdF9yCSwWo6itj0zh/lnajvBiN0491v9NmWQoSrfeHHEn2yv17yHfCh6EdDUrV/+VmFIBXrU+rgwfHx86lXF99ANJ3P8AzQY0ygb/GcgAAAAASUVORK5CYII=;" vertex="1" parent="aCxlsfGfSEMQHci3j_Ye-37">
          <mxGeometry x="49.34" y="116.43" width="71.31" height="73.57" as="geometry" />
        </mxCell>
        <mxCell id="aCxlsfGfSEMQHci3j_Ye-45" value="" style="endArrow=classic;startArrow=classic;html=1;rounded=0;entryX=0.5;entryY=1;entryDx=0;entryDy=0;exitX=1;exitY=0.5;exitDx=0;exitDy=0;edgeStyle=orthogonalEdgeStyle;" edge="1" parent="1" source="aCxlsfGfSEMQHci3j_Ye-34" target="aCxlsfGfSEMQHci3j_Ye-37">
          <mxGeometry width="50" height="50" relative="1" as="geometry">
            <mxPoint x="140" y="430" as="sourcePoint" />
            <mxPoint x="190" y="380" as="targetPoint" />
          </mxGeometry>
        </mxCell>
        <mxCell id="aCxlsfGfSEMQHci3j_Ye-46" value="" style="endArrow=classic;startArrow=classic;html=1;rounded=0;entryX=0.5;entryY=0;entryDx=0;entryDy=0;exitX=1;exitY=0.5;exitDx=0;exitDy=0;edgeStyle=orthogonalEdgeStyle;" edge="1" parent="1" source="aCxlsfGfSEMQHci3j_Ye-34" target="aCxlsfGfSEMQHci3j_Ye-12">
          <mxGeometry width="50" height="50" relative="1" as="geometry">
            <mxPoint x="150" y="385" as="sourcePoint" />
            <mxPoint x="245" y="290" as="targetPoint" />
          </mxGeometry>
        </mxCell>
        <mxCell id="aCxlsfGfSEMQHci3j_Ye-47" value="" style="endArrow=classic;startArrow=classic;html=1;rounded=0;entryX=0.5;entryY=1;entryDx=0;entryDy=0;edgeStyle=orthogonalEdgeStyle;exitX=1;exitY=0.5;exitDx=0;exitDy=0;" edge="1" parent="1" source="aCxlsfGfSEMQHci3j_Ye-34" target="aCxlsfGfSEMQHci3j_Ye-6">
          <mxGeometry width="50" height="50" relative="1" as="geometry">
            <mxPoint x="140" y="430" as="sourcePoint" />
            <mxPoint x="190" y="380" as="targetPoint" />
          </mxGeometry>
        </mxCell>
      </root>
    </mxGraphModel>
  </diagram>
</mxfile>
